<svg xmlns="http://www.w3.org/2000/svg" width="938" height="264" viewBox="0 0 938 264">
    <path fill="#000" fill-rule="evenodd" d="M168.49 190.397c.16-.607.32-.578.414.062l-.249.423c-.06-.163-.198-.354-.164-.485zm-2.336-5.456l.172-.328.109.366-.28-.038zm-8.71 9.095c-3.197-.131-6.399-.222-9.585-.535-3.001-.294-5.986-.846-8.976-1.296-.383-.057-.692-.974-.476-1.531.2-.516.48-.991.732-1.482-.704-.484-.906-1.247-.499-1.986.843-1.526 1.69-3.055 3.476-3.455.889-.2.713-1.14.582-1.96-.053-.329.067-.965.23-1.023 1.97-.698 2.183-3.064 3.328-4.532.581-.745.96-1.693 1.467-2.519.64-1.04 2.34-1.587 3.324-.6 1.369 1.37 2.244.387 3.218-.322.42-.305.633-.96.98-1.415.831-1.088 1.91-.82 2.393.64.503 1.518 1.105 3.037 1.345 4.614.365 2.412.888 4.766 1.393 7.139.505 2.369.763 4.803 1.127 7.209.03.2.025.406.05.607.104.858-.704 2.136-1.468 2.233-.877.112-1.763.25-2.642.214zm-19.782-11.013c.356 1.732-.282 2.843-1.689 3.473-.038-1.535.711-2.576 1.69-3.473zm-3.498 5.428l.483-.349-.13.608-.353-.259zm3.847-5.82l.616-.734a1.398 1.398 0 0 1-.616.733zm13.68-11.59c-.086.068-.297.012-.41-.066-.068-.048-.057-.247-.082-.378.126-.072.269-.23.375-.201.406.109.454.375.117.645zm-24.824 3.432c.565-1.112.652-2.527 1.585-3.39.214-.199.681-.35.852-.217.21.161.397.729.305.977-.523 1.419-1.204 2.677-2.742 2.63zm-.322.744c-.037.702-.02 1.423-.554 1.947-.12-.759.254-1.34.554-1.947zm-.986 2.448c-.14-.175-.065-.263.218-.266-.072.089-.144.178-.218.266zm-2.447 2.905l.037-.31.262.202-.299.108zm-9.398 41.147c-.032-1.283.05-2.528.772-3.622.296-.448.51-.538.736-.13.084.152.18.362.153.516-.233 1.3-.732 2.422-1.66 3.236zm-1.554 1.278c-.04-.15.051-.402.157-.527.351-.417.78-.608 1.28-.498.092.602-.143 1.016-.616 1.321-.401.26-.694.19-.821-.296zm-28.918 10.962l.18-.279c-.045.089-.072.21-.139.258-.012.01-.027.014-.04.021zm-.413.43a1.45 1.45 0 0 1-.745.916c.152-.41.395-.723.745-.917zm101.419-35.879c.205-2.358-1.155-4.259-1.531-6.449-.068-.395-.198-.859-.088-1.198.734-2.253-.342-4.405-.283-6.608.039-1.446-.085-2.776-.942-3.988-.258-.365-.148-1.154-.07-1.723.112-.83.134-1.624-.263-2.359-.543-1.005-.309-1.936.101-2.88.33-.757.414-1.455-.157-2.21a6.922 6.922 0 0 1-1.063-2.081c-.597-1.924-1.119-3.88-1.619-5.84a13.526 13.526 0 0 1-.374-2.389c-.2-2.845-.15-5.73-1.314-8.393a2.553 2.553 0 0 1-.184-1.192c.238-2.512-.529-4.833-1.027-7.213-.247-1.18-.506-2.425-.424-3.606.17-2.445-.77-4.78-.404-7.254.134-.91-.31-1.982-.617-2.929-.57-1.767-1.79-3.041-2.78-4.491-.717-1.05-1.645-1.573-2.761-1.64-1.423-.084-2.863-.249-4.271-.106-3.028.306-5.997.97-8.68 2.716-.93.605-2.022 1.218-2.327 2.392-.5 1.917-1.725 2.994-2.927 4.19-5.376 5.344-10.278 11.228-14.474 17.8-2.927 4.583-5.767 9.233-8.982 13.562-.8 1.077-1.641 2.116-2.443 3.193-4.479 6.018-7.895 12.966-12.526 18.853-.229.29-.303.734-.5 1.066-.396.664-.72 1.472-1.264 1.914-1.228 1-1.506 2.799-2.52 3.83-1.113 1.135-1.677 2.57-2.435 3.918-1.245 2.215-2.493 4.415-4.055 6.384-1.645 2.073-2.469 4.886-4.423 6.711-1.67 3.346-3.332 6.695-5.013 10.033-.53 1.054-.974 2.228-1.7 3.078-1.406 1.649-2.24 3.614-2.968 5.704-.392 1.128-1.54 1.263-2.234 2.021-1.004 1.098-1.684 2.672-2.283 4.1-1.287 3.065-1.19 6.275-2.022 9.483-.206.795.182 1.637.793 2.147 1.626 1.357 3.37 2.323 5.468 1.999.704-.109 1.424-.195 2.13-.148.513.035.993.28 1.346.846.3.483.705 1.033 1.163 1.212 1.684.658 3.38 1.32 5.22.956.952-.189 1.67-.602 1.993-1.693.896-3.027 1.975-5.933 4.042-8.181.052-.378.06-.773.165-1.13.428-1.452.985-1.5 2.095-.207 1.642-1.314 2.985-2.737 3.142-5.302.042-.693.66-1.43 1.164-1.962.82-.867 1.412-1.792 1.43-3.123.01-.86.362-1.527.923-2.095.922-.936 1.78-1.957 2.722-2.866.561-.543 1.029-1.137 1.215-1.937.52-2.227 1.48-4.076 3.06-5.562.659-.619 1.2-1.543 1.52-2.457.62-1.776 1.771-3.019 2.878-4.331.246-.292.473-.607.72-.896.888-1.035 1.969-.62 2.287.944.24 1.182.311 2.405.53 3.592.065.362.31.86.574.966 1.363.555 2.497 1.458 3.565 2.563.346.358 1.01.498 1.506.454 3.015-.266 6.023-.608 9.032-.94.701-.077 1.4-.329 2.095-.295 2.66.126 5.328.572 7.95-.288 1.791.496 3.497-.034 5.265-.307 9.731-1.5 8.582-1.891 10.237 8.858-.09 3.285.153 6.522 1.111 9.662.189 4.112 1.617 7.937 2.235 11.951.153.995.508 1.952.792 2.918.168.574 1.204 1.164 1.814 1.025.516-.118 1.08-.164 1.524-.445a188.887 188.887 0 0 0 6.45-4.247c.753-.519 1.462-1.17 2.069-1.895.333-.398.502-1.057.579-1.63.078-.59-.01-1.222-.086-1.827-.226-1.795.142-3.57-.22-5.427-.336-1.721-.026-3.66.24-5.454.48-3.239.578-6.446.19-9.722-.312-2.648-.164-5.283 1.128-7.65.18-.33.329-.744.34-1.128.072-2.239.393-4.536.057-6.705-.342-2.22-.803-4.377-.606-6.642zm37.018-9.702c-.104-.361-.019-.418.233-.15.012.012-.145.17-.224.261l-.009-.111zm2.084-7.598c.406-.058.466.042.163.284-.008.006-.165-.157-.252-.242l.089-.042zm98.243 45.038c-.492-.047-.799-.312-.947-.747-.14-.408-.265-.82-.396-1.23l-.113.199c.502.589 1.297.993 1.313 1.891l.143-.113zm-113.726-2.84c-.002-.047.18-.103.28-.154.052.131.134.26.142.395.003.043-.186.1-.286.151-.051-.13-.132-.26-.136-.392zm13.342-26.51c.27.182.56.347.8.56.049.043-.114.392-.122.39-.645-.15-.453-.689-.54-1.103l-.138.153zm99.04 27.373c-1.29-.5-2.274-1.271-2.57-2.648l-.11.161c.924-.155 1.499.229 1.828 1.03.229.559.492 1.104.74 1.656l.113-.2zm-120.526 16.203c-.117-.222-.301-.435-.332-.67-.034-.25.076-.52.123-.781.07.148.166.29.203.445.039.16.02.334.028.501l-.022.505zm-3.079-20.28c-.092.096-.34.183-.434.133-.355-.186-.408-.488-.143-.778.084-.092.287-.088.436-.128.348.21.415.484.141.772zm-.222-18.984c.136-.222.478-.33.728-.49.132.252.417.547.354.746-.066.21-.464.33-.717.489-.353-.153-.55-.442-.365-.745zm.624 28.687a2.483 2.483 0 0 1-.371-.849c-.101-.47-.147-.954-.175-1.435-.01-.144.117-.297.182-.445.124.09.282.157.363.274.088.126.114.296.149.45.07.315.128.631.191.947.111.712-.13 1.369-.34 1.058zm13.232 12.75c.02-.15.108-.343.23-.416.103-.061.35-.03.448.053.366.308.744.62 1.029.993.351.462.136.935-.262 1.272-.209.177-.633.353-.824.266-.256-.116-.397-.48-.552-.755-.075-.133-.07-.308-.102-.463.008-.317-.007-.637.033-.95zm1.33-34.607l-.308-.146-.008.285.316-.14zm-8.719-13.274l.254.128.006-.252-.26.124zm133.748 17.873l-.348.021.198.413.15-.434zm-117.874 2.038c1.157-.137 1.371-.3 1.52-1.092.653-3.48.658-3.618-.131-7.464-.091-.446-.412-.545-.766-.322-.14.089-.321.166-.394.293-.623 1.093-.694 2.282-.484 3.45.188 1.045.01 1.988-.386 2.957-.322.786-.53 1.614-.789 2.423-.116.073-.243.133-.346.22-.055.047-.07.138-.103.209.095-.182.19-.365.286-.546.531-.042 1.064-.066 1.593-.128zm-3.617-6.74c1.315-.583 1.148-1.821 1.406-2.865.017-.068-.204-.24-.338-.27a.593.593 0 0 0-.436.11c-1.117.906-.8 2.015-.506 3.117l-.232.184.106-.275zm1.922-10.338c-.492.072-.845.346-.896.802-.047.422.053.857.088 1.286-.384.003-.63.178-.658.533-.003.054.312.213.394.17.355-.182.39-.467.148-.777 1.065-.636 1.065-.636.798-2.102l.193-.197-.067.285zm127.393 21.277c.089.218.275.4.417.598.071-.12.204-.243.199-.358a.676.676 0 0 0-.205-.423c-.241-.225-.52-.413-.784-.616-.062-.388.008-.837-.509-1.015-.028.12-.122.305-.073.35.214.199.469.356.71.528.078.313.124.638.245.936zm-29.046.687c-3.912-4.575-7.347-9.473-10.424-14.59-2.37-3.942-4.766-7.848-7.79-11.385a9.46 9.46 0 0 1-2.038-4.064 13.503 13.503 0 0 0-.572-1.943c-.115-.294-.364-.65-.647-.753-1.305-.483-2.64-.894-3.972-1.31a.693.693 0 0 0-.51.077c-1.164.765-2.551 1.317-3.03 2.76-.429 1.294-.946 2.57-1.253 3.886-.967 4.141-2.122 8.268-2.693 12.457a424.608 424.608 0 0 0-1.44 11.588c-.147 1.344-.233 2.696-.444 4.032-.428 2.707-.53 5.42-.07 8.1.519 3.025.448 6.07.563 9.112.06 1.588-.326 3.086-1.188 4.377-1.115 1.668-1.836 3.68-4.07 4.52-.587.222-.98.96-1.428 1.486-.79.924-1.406 1.94-2.013 2.99-1.206 2.085-3.17 2.368-5.034 1.769-.991-.318-1.903-.872-2.817-1.373a3.083 3.083 0 0 1-1.542-1.974c-.291-1.144-.613-2.299-.715-3.469a134.411 134.411 0 0 1-.037-22.81c.099-1.181.117-2.368.21-3.55.162-2.024.202-4.07.57-6.065.432-2.335 1.046-4.64 1.028-7.027 1.524-5.592 1.862-11.385 3.494-16.964 1.626-5.558 3.12-11.149 4.673-16.726.32-1.146.645-2.293.971-3.437.18-.631-.213-1.533-.734-1.715-1.991-.698-3.956-1.479-5.989-2.048-.989-.276-2.115-.27-3.165-.187a35.41 35.41 0 0 1-6.922-.14c-.854-.1-1.71-.46-2.468-.862-.608-.322-1.057-.907-.989-1.665.092-1.014.2-2.027.333-3.035a8.382 8.382 0 0 0-.265-3.513c-.425-1.462-.702-2.964-1.062-4.444-.725-2.976-1.967-5.757-3.485-8.427-.249-.437-.632-.804-.96-1.197-.413-.494-1.352-.758-1.916-.54-1.344.52-2.623 1.15-3.4 2.382-2.305 3.652-4.59 7.314-6.862 10.983-.633 1.023-1.157 2.106-1.797 3.126-1.464 2.333-2.846 4.666-3.11 7.461-.123 1.31-1.494 2.29-1.348 3.779.038.384-.508.85-.834 1.244-.55.666-1.268 1.242-1.669 1.974-.294.54-.174 1.271-.282 1.91-.023.139-.208.287-.356.37-.75.42-.964 1.074-.547 1.708.692 1.05.142 1.95-.255 2.865-.099.227-.538.4-.848.458-.922.17-1.062.757-1.006 1.488-.267.304-.76.594-.955 1.008-.727 1.54-1.344 3.126-2.028 4.685-.458 1.045.212 1.528.997 1.974-.284.684-.639 1.42-1.256 2.06-.387.4-.086.825.59.91.503.065 1.043.019 1.506.177.235.08.433.488.479.775.111.69-.153 1.312-.7 1.784-.74.638-.819 1.421-.685 2.273-.687.28-1.234.95-1.498 1.783-.205.646-.285 1.327-.394 1.996-.073.46-.545 1.004.095 1.353.51.277.957-.062 1.4-.347.568-.364.956-.227 1.002.293.043.495.228 1.045.066 1.477-.704 1.872-.384 3.705.098 5.503.892 3.334.995 3.334.242 5.798-.31 1.017-.212 1.962.005 2.986.312 1.475.12 3.075.576 4.49.49 1.518.4 2.984.324 4.494-.103 2.062.568 4.011.893 6.01.026.165.084.327.155.48.071.153.176.292.266.436.168-.255.447-.5.481-.768.084-.664-.06-1.368.11-2.004.118-.443.57-.834.934-1.191.31-.305 1.274-.052 1.34.324.17.977.505 1.97.428 2.934-.12 1.5.789 2.516 1.448 3.666.245.428 1.09.413 1.343-.021.429-.738.943-1.459 1.209-2.249a218.75 218.75 0 0 0 2.618-8.3c1.782-6.087 4.502-11.828 7.326-17.528.767-1.55 1.835-2.826 3.63-3.59 1.776-.757 3.387-1.885 5.046-2.886 1.539-.93 3.193-1.523 4.993-1.687.31-.027.65.198.951.35.04.02-.02.33-.113.452-1.108 1.48-.955 3.242-1.134 4.883-.152 1.39-.316 2.662-1.26 3.8-1.249 1.505-1.988 3.17-2.027 5.144-.02.986-.36 2.03-.805 2.94-.848 1.742-1.28 3.496-1.124 5.41.05.638-.229 1.32-.437 1.96-1.05 3.244-2.023 6.5-2.323 9.895-.044.498-.115 1.045-.368 1.467-.639 1.069-.823 2.203-.922 3.392-.144 1.732-.853 3.273-1.995 4.646-1.886 2.268-3.832 4.474-6.423 6.064-.15.092-.276.232-.435.3-1.138.483-2.28.96-3.426 1.428-.984.4-1.992.753-2.96 1.186-1.119.502-1.917 1.554-3.255 1.71-.894.105-1.725.413-2.449.964-.9.684-1.927.888-3.009.571-1.049-.307-2.136-.393-3.166-.15-1.893.447-3.37-.444-5.025-.97-3.845-1.221-6.757-3.513-9.371-6.352-1.452-1.576-1.998-3.53-3.011-5.281-.2-.345-.027-.65.305-.681.148-.015.349.108.456.226.226.246.5.503.59.802 1.014 3.37 3.458 5.38 6.829 6.471 1.338.434 2.727.734 4.099 1.073 1.085.27 1.77-.538 1.514-1.905-.076-.403-.188-.663.21-.836.808-.352 1.62-.697 2.437-1.026.316-.128.56.047.763.424.354.657.952 1.006 1.719.91.874-.112 1.74-.316 2.598-.52.47-.113.686-.66.538-1.218-.173-.649-.41-1.29-.494-1.95-.022-.182.432-.624.608-.599.69.097 1.343.425 2.032.498 1.135.121 2.14-1.068 1.723-1.983-.492-1.08-1.04-2.135-1.567-3.199-.83-1.674-1.652-3.351-2.496-5.018-2.476-4.887-4.077-10.04-5.01-15.402-.086-.493-.232-1-.477-1.433-.116-.203-.525-.29-.818-.346-.114-.022-.389.174-.403.291-.13 1.002-.586 2.107.004 2.987 1.126 1.68 1.09 3.499 1.05 5.362-.013.658.392 1.339-.065 1.961-.17.233-.665.541-.79.468a14.034 14.034 0 0 1-2.105-1.47c-.217-.185-.38-.666-.28-.91.696-1.71.42-3.324-.322-4.914-.45-.963-.331-1.984-.338-2.998-.005-.675-.085-1.348-.149-2.02-.084-.879-.442-1.043-1.794-.85-.62.09-1.205-.177-1.218-.58-.057-1.691-.144-3.382-.135-5.074.01-1.689.247-3.388.148-5.066-.1-1.686-.29-3.346.126-5.025.027-.108-.422-.359-.685-.466-.094-.038-.353.116-.432.242-.177.28-.347.59-.41.905-.066.324.004.672.003 1.01-.005 1.415-1.444 2.36-1.428 3.783.015 1.183.129 2.372.02 3.546-.038.41-.57 1.075-.94 1.124-1.609.21-1.945 1.352-2.211 2.503-.188.814-.108 1.679-.21 2.515-.132 1.086-.759 1.882-1.777 2.39-.557-.11-.676-.27-.711-.417-.212-.867.01-1.712.43-2.46.553-.982.71-1.82-.024-2.808-.862-1.16-1.034-2.441-.276-3.823.551-1.006.47-2.338 1.781-2.934.267-1.33.547-2.656.795-3.987.099-.532-.425-.88-.986-.67-.328.123-.639.289-.957.436-.224.844.238 2.029-.866 2.692-.252.151-.633.15-.95.137-.122-.005-.298-.22-.333-.367a4.832 4.832 0 0 1-.113-1c-.059-2.214.304-4.402.88-6.53.337-1.243.008-2.34-.137-3.497-.02-.163-.119-.315-.18-.473-.203.168-.512.301-.59.51-.466 1.269-.872 2.559-1.325 3.834-.041.116-.267.215-.422.247-.348.074-.667-.109-.702-.502-.262-2.893-.157-5.728 1.235-8.45.618-1.209.93-2.555 1.381-3.839-.513-2.48.703-4.58 1.564-6.814.54-1.4.645-2.976 1.207-4.411.55-1.409.483-3.04 1.714-4.21a.817.817 0 0 0 .24-.451c.494-3.968 2.768-7.3 4.388-10.87 1.132-2.494 2.106-5.052 3.123-7.59.64-1.598 1.425-3.106 2.535-4.47 1.979-2.433 3.742-5 5.284-7.704 1.292-2.263 3.18-4.111 4.865-6.088 1.465-1.717 3.123-3.3 4.816-4.823 1.717-1.544 3.716-2.596 6.166-2.77 2.311-.166 4.594-.442 6.873.213.834.24 1.76.254 2.648.27 4.903.093 9.348 1.802 13.839 3.345.496.17.917.549 1.42.683 2.512.667 4.492 1.895 5.567 4.27.27.596.849 1.07 1.315 1.575 1.376 1.49 3.53 2.34 4.069 4.515 1.615 1.395 2.521 3.213 3.405 5.067a3.427 3.427 0 0 0 1.396 1.462c1.281.683 2.221 1.6 2.885 2.829.164.301.575.245.814-.14.357-.58.665-1.192.934-1.814 1.09-2.517 2.158-5.042 3.236-7.564.538-1.26 1.21-2.484 1.592-3.783.634-2.164 1.816-4.074 2.984-5.971.818-1.327 2.06-2.294 3.827-2.556 1.756-.26 3.463-.84 5.218-1.115 2.123-.33 4.27-.197 6.312.406 1.976.584 3.252 1.88 3.897 3.818 1.004 3.024.495 5.663-1.92 7.953-.884.839-1.734 1.71-2.613 2.553-1.68 1.608-2.78 3.558-3.603 5.636-1.89 4.773-3.72 9.567-5.54 14.364-.217.57-.732 1.257.011 1.792.625.45 1.377.169 2.07.08.914-.117 1.682-.566 2.365-1.132 1.757-1.454 3.58-2.846 5.227-4.406 4.072-3.86 8.398-7.441 12.797-10.95 1.103-.88 2.226-1.678 3.637-2.117.82-.254 1.605-.755 2.277-1.291 3.573-2.855 7.608-5.095 11.285-7.805 3.696-2.725 7.689-4.973 11.86-6.954 1.117-.53 2.17-1.187 3.231-1.819 1.106-.66 2.335-.822 3.583-.938.907-.085 1.8-.029 2.526.538 1.11.865 2.295 1.56 3.73 1.851.512.104.988.357 1.479.546 6.703 2.586 7.067 11.24 2.643 15.376-.64.598-1.328 1.148-1.972 1.742-.508.47-1.12.9-1.45 1.47-1.177 2.032-3.01 3.267-5.064 4.424-3.54 1.994-6.93 4.233-10.399 6.346a206.51 206.51 0 0 1-5.03 2.948c-.624.356-1.325.59-2.038.332-1.263-.459-2.368-.058-3.6.309-3.43 1.02-6.532 2.768-9.89 3.944-1.34.47-2.555 1.114-4.072 1.016-.632-.041-1.34.43-1.964.756-.91.473-1.409 1.785-1.018 2.663 1.239 2.79 2.477 5.58 3.777 8.344 1.52 3.23 3.11 6.43 5.121 9.42.47.7.728 1.527 1.138 2.268.576 1.042 1.13 2.105 1.82 3.076 2.075 2.918 4.285 5.751 5.634 9.086.184.457.51.975.93 1.212 2.866 1.616 4.035 4.555 6.028 6.848.295.34.874.52 1.359.615.188.036.707-.405.681-.567-.103-.642-.249-1.323-.589-1.872-.582-.942-.732-1.848-.327-2.892.57-1.47 1.313-2.778 2.84-3.565.627-.322 1.2-.744 1.8-1.117.41-.255 1.155-.05 1.326.374.252.624.64 1.239.706 1.885.26 2.584 1.954 4.676 2.517 7.164.297 1.315 1.9 1.99 2.247 3.372.288 1.148.54 2.308.907 3.431.15.461.475.946.87 1.242 1.838 1.38 1.803 3.37 1.286 5.107-.74 2.484-1.109 4.985-1.318 7.507-.207 2.506-1.409 4.548-2.923 6.463-1.76 2.222-4.005 3.94-6.788 4.847-1.165.379-2.458.582-3.682.557-2.868-.059-5.643-.496-8.066-2.158-3.312-2.272-6.498-4.672-9.015-7.752-1.4-1.713-3.094-3.263-3.773-5.443 1.866.874 3.25 2.361 4.663 3.817.362.373 1.052.276 1.159-.31.2-1.088 1.04-1.17 1.855-1.448.775-.264.864-.533.68-1.069-.727-2.119-1.8-4.015-4.043-4.955-1.206-.505-1.91-1.314-2.53-2.357-.595-1.002-1.371-1.913-2.147-2.802-.318-.364-.83-.581-1.275-.831-.591-.332-1.58-.002-1.772.58-.527 1.604-.815 3.233-.614 4.911-.92-.572-1.5-1.457-2.154-2.221zM381.526 37.15c-.023-.168.016-.189.107-.053.005.006-.07.067-.11.103l.003-.05zm1.327-3.273c.176-.001.196.048.053.138-.004.002-.061-.081-.093-.125l.04-.013zm39.113 26.177c-.207-.051-.322-.189-.36-.392-.035-.191-.064-.384-.096-.576l-.06.083c.18.294.493.524.448.926l.068-.041zm-48.143-8.24c.002-.021.082-.035.128-.052.015.062.042.125.037.185 0 .02-.085.034-.13.05-.015-.06-.041-.124-.035-.183zm7.208-11.047c.105.098.218.19.308.3.018.021-.072.168-.075.167-.265-.107-.152-.336-.165-.527l-.068.06zm40.48 18.32c-.52-.304-.894-.709-.94-1.343l-.055.065c.401-.012.623.194.716.573.065.264.145.525.219.787l.06-.083zm-52.14-.135c-.036-.106-.102-.213-.102-.32 0-.114.063-.228.098-.341.02.07.053.139.06.21.007.075-.01.151-.017.227l-.039.224zm-.128-9.265c-.045.038-.156.061-.193.033-.14-.105-.145-.243-.016-.356.042-.037.128-.022.194-.03.135.114.148.24.015.353zm1.01-8.51c.07-.09.221-.118.337-.174.041.121.145.27.107.356-.04.09-.217.119-.333.174-.142-.09-.208-.231-.112-.355zm-1.404 12.878a1.17 1.17 0 0 1-.108-.403 4.516 4.516 0 0 1 .009-.653c.005-.065.067-.126.103-.188.048.047.11.087.139.145.03.062.03.14.037.21.011.146.017.29.026.436.005.325-.135.605-.206.453zm4.88 6.517c.016-.066.065-.147.121-.173.048-.02.15.009.187.052.138.16.28.323.38.507.123.228.003.427-.186.554-.098.066-.289.119-.365.068-.102-.068-.14-.24-.19-.372-.025-.064-.012-.142-.017-.213.022-.142.034-.286.07-.423zm2.576-15.407l-.122-.084-.02.127.142-.043zm-2.93-6.475l.099.073.017-.112-.117.04zm55.772 16.195l-.15-.012.061.197.089-.185zm-50.188-6.311c.5.01.6-.05.709-.395.48-1.518.49-1.58.378-3.35-.013-.205-.143-.268-.306-.19-.064.03-.146.054-.185.107-.328.451-.428.978-.406 1.514.02.48-.112.89-.336 1.3-.183.332-.319.69-.475 1.036-.054.025-.112.044-.16.077-.027.018-.038.058-.057.087l.154-.227c.228.014.456.036.684.04zm-1.145-3.238c.593-.181.593-.745.764-1.196.01-.03-.072-.12-.128-.141a.244.244 0 0 0-.191.022c-.528.337-.457.853-.396 1.364l-.11.068.061-.117zm1.418-4.51c-.214.003-.38.104-.428.305-.044.186-.027.387-.037.581-.163-.023-.278.041-.31.198-.005.024.12.115.157.1.161-.06.193-.185.108-.338.49-.22.49-.22.462-.892l.093-.077-.045.124zm52.876 17.33c.025.103.093.196.143.293.037-.05.1-.096.104-.148a.312.312 0 0 0-.062-.202c-.09-.115-.197-.217-.297-.324-.004-.177.052-.374-.157-.485-.02.052-.07.13-.052.153.08.101.179.187.271.279.015.145.016.293.05.434zm-12.378-1.473c-1.396-2.287-2.57-4.69-3.58-7.167-.777-1.91-1.568-3.805-2.647-5.574a4.424 4.424 0 0 1-.629-1.943 6.414 6.414 0 0 0-.13-.905c-.032-.139-.117-.313-.23-.377-.527-.296-1.07-.562-1.612-.829-.76.274-1.382.436-1.67 1.053-.256.552-.55 1.091-.757 1.662-.651 1.794-1.382 3.57-1.868 5.41a199.637 199.637 0 0 0-1.286 5.097c-.14.593-.255 1.193-.422 1.778-.34 1.185-.541 2.393-.502 3.62.045 1.386-.162 2.745-.29 4.113-.067.715-.317 1.361-.76 1.886-.57.678-.993 1.535-1.99 1.774-.262.063-.472.37-.694.577-.389.365-.71.782-1.029 1.215-.633.859-1.483.865-2.24.483-.403-.203-.758-.507-1.117-.787a1.41 1.41 0 0 1-.54-.978c-.058-.53-.127-1.067-.102-1.596a63.765 63.765 0 0 1 1.31-10.211c.11-.522.187-1.052.296-1.575.185-.896.322-1.81.594-2.68.32-1.019.715-2.012.846-3.082.972-2.409 1.452-4.982 2.47-7.378 1.013-2.388 1.973-4.798 2.957-7.199.202-.493.407-.987.613-1.479.113-.271-.002-.698-.213-.812-.805-.435-1.594-.905-2.424-1.283-.404-.185-.884-.251-1.334-.278a14.51 14.51 0 0 1-2.932-.487c-.357-.098-.7-.31-.999-.538-.239-.181-.396-.47-.322-.805.097-.448.202-.895.318-1.338a3.988 3.988 0 0 0 .091-1.588c-.096-.68-.126-1.37-.193-2.055-.135-1.376-.5-2.696-.99-3.984-.08-.21-.222-.398-.338-.595-.147-.246-.53-.422-.783-.36-.6.152-1.18.355-1.583.86a642.91 642.91 0 0 0-3.553 4.494c-.329.419-.615.871-.945 1.289-.757.954-1.48 1.914-1.755 3.149-.128.578-.768.933-.792 1.608-.006.174-.265.35-.427.506-.272.264-.61.477-.823.78-.156.224-.149.559-.231.838-.018.06-.105.115-.173.144-.343.142-.472.421-.331.73.232.513-.054.882-.275 1.267-.056.096-.252.146-.387.153-.402.02-.496.274-.514.604-.131.12-.357.22-.465.393-.398.645-.752 1.317-1.133 1.973-.256.44 0 .697.309.944-.16.289-.354.596-.653.845-.188.156-.085.364.197.444.21.06.442.072.63.171.094.05.155.245.158.376a.869.869 0 0 1-.402.756c-.351.24-.43.586-.423.975-.308.083-.579.35-.74.706-.124.276-.198.577-.283.87-.058.2-.29.415-.038.61.2.155.41.031.615-.069.262-.128.418-.043.408.193-.01.224.036.481-.058.665-.408.794-.378 1.634-.278 2.468.185 1.547.229 1.553-.234 2.61-.191.437-.204.865-.172 1.337.047.679-.128 1.383-.016 2.045.12.71-.004 1.36-.124 2.031-.163.917.008 1.83.03 2.745a.904.904 0 0 0 .038.223c.021.073.058.142.088.212.086-.104.219-.196.249-.314.074-.293.054-.616.163-.89.076-.192.29-.34.466-.476.15-.118.544.054.55.226.015.448.1.913.012 1.34-.138.664.188 1.174.401 1.73.08.206.44.25.572.072.225-.304.485-.595.644-.932a101.93 101.93 0 0 0 1.595-3.554c1.11-2.615 2.6-5.017 4.13-7.396.417-.646.945-1.152 1.752-1.384.798-.23 1.548-.636 2.31-.983.709-.32 1.446-.485 2.22-.448.133.007.265.128.384.215.015.011-.028.145-.075.195-.556.595-.594 1.393-.766 2.116-.144.612-.288 1.172-.756 1.624-.618.596-1.028 1.297-1.16 2.177-.065.44-.27.887-.512 1.267-.462.727-.747 1.486-.793 2.352-.015.288-.174.577-.299.85-.635 1.388-1.238 2.785-1.562 4.286-.048.22-.11.461-.242.634-.333.44-.477.936-.588 1.462-.163.766-.553 1.412-1.118 1.957-.933.9-1.888 1.767-3.081 2.32-.07.032-.13.087-.202.108-.512.147-1.024.29-1.539.429-.441.119-.889.215-1.326.35-.504.156-.905.577-1.482.565a2.022 2.022 0 0 0-1.096.281c-.423.252-.87.28-1.312.072-.427-.202-.884-.307-1.336-.261-.83.084-1.405-.405-2.078-.742-1.562-.782-2.666-1.987-3.611-3.418-.525-.794-.644-1.702-.972-2.547-.065-.167.026-.293.17-.287.063.003.14.07.18.13.082.123.183.255.203.395.235 1.57 1.157 2.619 2.525 3.315.543.276 1.116.495 1.679.73.445.188.783-.132.754-.76-.01-.184-.042-.307.137-.361.364-.108.73-.212 1.096-.31.141-.037.235.056.3.237.111.316.345.509.676.512.378.004.757-.034 1.134-.073.207-.022.33-.253.3-.512-.036-.3-.1-.603-.097-.903 0-.083.22-.253.293-.23.287.085.546.271.834.346.475.125.97-.346.847-.781-.146-.513-.317-1.02-.48-1.528-.254-.8-.506-1.6-.768-2.398-.768-2.34-1.148-4.744-1.232-7.2a2.13 2.13 0 0 0-.12-.67c-.037-.099-.205-.163-.327-.206-.047-.017-.175.054-.188.105-.113.44-.371.907-.172 1.337.38.821.26 1.633.134 2.465-.044.293.089.623-.141.873-.087.094-.315.201-.363.162a6.165 6.165 0 0 1-.809-.788c-.081-.096-.122-.321-.066-.424.395-.723.371-1.462.15-2.22-.136-.457-.026-.908.03-1.361.037-.303.042-.609.054-.913.015-.4-.127-.494-.713-.49-.268 0-.501-.154-.483-.336.074-.76.135-1.522.237-2.278.102-.756.302-1.502.358-2.259.056-.76.071-1.515.345-2.24.018-.048-.158-.187-.264-.251-.289.196-.379.324-.424.462-.047.14-.037.3-.057.451-.085.634-.75.969-.826 1.606-.063.531-.084 1.07-.198 1.588-.04.182-.305.447-.466.446-.695-.005-.904.485-1.084.985-.128.352-.143.744-.235 1.112-.12.478-.432.796-.894.96-.23-.082-.271-.16-.278-.229-.04-.401.104-.765.326-1.075.292-.406.407-.771.153-1.258-.298-.572-.298-1.156.105-1.728.293-.416.336-1.017.927-1.204.191-.578.386-1.155.57-1.736.073-.23-.13-.42-.38-.36-.146.035-.288.09-.432.137-.145.363-.017.923-.525 1.151-.115.053-.277.029-.41.004-.053-.01-.115-.117-.121-.185a2.332 2.332 0 0 1 .01-.454c.104-.995.385-1.952.754-2.869.215-.536.14-1.047.145-1.573 0-.075-.032-.149-.05-.223-.095.063-.235.103-.279.191-.272.54-.52 1.093-.787 1.635-.345.097-.47-.004-.462-.182.056-1.311.266-2.573 1.016-3.707.332-.502.544-1.086.81-1.633-.074-1.14.564-2.007 1.06-2.953.311-.593.447-1.293.769-1.9.316-.597.382-1.331.973-1.78a.37.37 0 0 0 .129-.187c.44-1.746 1.6-3.097 2.495-4.595.626-1.048 1.189-2.132 1.768-3.206.365-.676.786-1.302 1.337-1.846a25.218 25.218 0 0 0 2.692-3.123c.68-.934 1.59-1.645 2.421-2.427.721-.679 1.518-1.285 2.325-1.863.82-.586 1.73-.934 2.78-.863.992.068 1.978.085 2.908.518.34.158.733.22 1.11.283 2.076.342 3.865 1.379 5.683 2.345.2.106.358.302.564.392 1.028.453 1.798 1.124 2.116 2.252.08.284.298.531.467.786.498.75 1.363 1.264 1.465 2.27.606.723.885 1.592 1.153 2.476.083.276.28.567.508.74.504.384.85.853 1.06 1.443.053.145.23.145.355-.013.185-.237.351-.493.502-.754.61-1.06 1.21-2.125 1.814-3.188.302-.53.66-1.037.896-1.595.396-.93 1.009-1.712 1.615-2.49.424-.543 1.008-.9 1.774-.909.761-.008 1.52-.163 2.281-.178a5.902 5.902 0 0 1 2.658.568c.806.382 1.272 1.04 1.433 1.947.251 1.415-.118 2.565-1.277 3.442-.425.321-.836.659-1.26.982-.805.617-1.387 1.422-1.857 2.302a512.591 512.591 0 0 0-3.189 6.089c-.124.242-.383.518-.099.802.24.24.575.16.875.163.395.004.747-.15 1.07-.362.831-.543 1.687-1.054 2.476-1.651 1.955-1.478 4-2.816 6.073-4.116.52-.327 1.043-.615 1.668-.725.363-.064.726-.24 1.043-.439 1.683-1.059 3.527-1.813 5.247-2.8 1.728-.994 3.555-1.755 5.442-2.386.505-.169.99-.398 1.478-.616.508-.227 1.04-.226 1.577-.2.39.017.766.097 1.042.395.42.455.883.839 1.476 1.057.211.078.399.22.596.335 2.698 1.568 2.349 5.463.23 7.043-.307.23-.631.433-.94.66-.243.178-.528.333-.7.568-.619.837-1.47 1.278-2.41 1.67-1.619.675-3.19 1.47-4.786 2.203-.763.35-1.535.682-2.308 1.01-.285.121-.596.184-.884.024-.51-.283-1.003-.171-1.547-.082-1.517.247-2.936.838-4.43 1.16-.598.128-1.151.341-1.79.204-.266-.057-.594.11-.878.218-.414.156-.702.713-.587 1.13.364 1.324.727 2.648 1.119 3.965.458 1.54.947 3.068 1.627 4.53.16.342.221.728.352 1.085.184.501.357 1.011.594 1.488.712 1.433 1.486 2.836 1.865 4.411.052.216.16.468.325.6 1.123.899 1.45 2.286 2.162 3.434.106.17.342.286.541.358.078.028.325-.138.324-.211-.007-.294-.03-.608-.142-.875-.193-.457-.204-.871.029-1.314.327-.623.72-1.162 1.413-1.42.286-.107.553-.26.83-.39.19-.09.494.048.542.248.07.295.2.593.19.886-.04 1.173.558 2.213.653 3.361.05.607.69 1.007.758 1.647.056.531.095 1.066.185 1.591.038.215.148.452.298.609.7.73.57 1.62.25 2.365-.46 1.066-.761 2.163-.997 3.278-.234 1.11-.863 1.95-1.617 2.713-.877.888-1.93 1.519-3.165 1.754a4.621 4.621 0 0 1-1.597.023c-1.215-.201-2.368-.567-3.3-1.46-1.275-1.219-2.49-2.488-3.38-4.021-.494-.853-1.124-1.65-1.285-2.667.742.505 1.242 1.255 1.758 1.994.132.189.43.188.51-.068.149-.475.51-.46.872-.535.346-.07.4-.185.352-.436-.186-.993-.532-1.907-1.43-2.465-.482-.3-.734-.706-.937-1.21-.194-.486-.472-.941-.749-1.386-.114-.182-.32-.311-.494-.45-.23-.185-.67-.097-.786.15-.317.686-.534 1.398-.546 2.161-.358-.312-.552-.744-.786-1.126zM192.765 26.689c.226-1.2.346-2.423.615-3.613.706-3.127 1.584-6.202 2.999-9.098.467-.957.715-2.003 1.24-2.94.228-.405-.028-.935-.486-1.145-.556-.253-1.109-.529-1.691-.701a20.901 20.901 0 0 0-2.451-.566c-.598-.1-1.215-.127-1.823-.117-.618.01-1.197.158-1.649.664-.274.307-.701.282-1.078.22a1.203 1.203 0 0 1-.601-.286c-.219-.207-.366-.487-.554-.728-.529-.678-.486-1.414-.215-2.166.076-.215.204-.41.312-.612.314-.583.82-.92 1.46-.981 1.067-.1 2.138-.107 3.183.21 1.975.6 4.014.926 6.022 1.388.444.102.903.143 1.358.187.405.039.755-.11.995-.443a93.27 93.27 0 0 0 1.448-2.064c.389-.572.822-1.1 1.363-1.538.494-.398 1.044-.636 1.689-.583.454.037.916.06 1.357.163.963.223 1.907.532 2.873.733.618.128.926.445 1.019 1.048.202 1.319.1 2.577-.6 3.755-.21.356-.14.586.16.782.32.208.672.37.973.6.246.186.407.465.36.797-.25 1.754-.727 3.429-1.767 4.9-.18.255-.23.249-.553-.177-.186-.247-.375-.495-.688-.564-.126-.028-.354.008-.405.094-.656 1.107-1.302 2.213-1.74 3.442-.874 2.448-1.56 4.95-2.274 7.442-.252.878-.481 1.758-.516 2.692a6.174 6.174 0 0 1-.42 2.007c-.375.943-.353 1.948-.606 2.905-.1.38.108.713.374 1.027.356.42.246.89-.215 1.076-.917.373-1.844.723-2.771 1.071-.138.052-.3.046-.45.056a.446.446 0 0 1-.226-.03c-.775-.404-1.651-.052-2.445-.331-.287-.101-.602-.124-.883-.235a9.165 9.165 0 0 1-1.028-.503c-.938-.512-1.48-1.33-1.63-2.364-.144-.98-.188-1.975-.276-2.965a13.05 13.05 0 0 1 .24-2.51zm31.883-1.644c.454-2.321.862-4.653 1.518-6.933.272-.948.367-1.947.522-2.926.02-.13-.069-.286-.133-.418-.078-.163-.381-.218-.607-.107-.409.203-.823.398-1.213.634-.26.157-.483.374-.715.572-1.401 1.196-2.658 2.531-3.813 3.962a3.54 3.54 0 0 0-.45.782c-.619 1.397-1.186 2.81-1.525 4.31-.151.667-.442 1.303-.61 1.968-.306 1.217-1.043 2.198-1.704 3.22-.175.27-.47.387-.79.384-.38-.004-.804.07-1.13-.072-.708-.308-1.332-.182-1.97.14-.135.068-.282.113-.421.17-1.083.45-1.886.273-2.642-.592a22.259 22.259 0 0 1-.728-.885.968.968 0 0 1-.2-.858c.254-1.036.473-2.078.756-3.11 1.396-5.092 3.117-10.071 5.086-14.964 1.342-3.336 2.97-6.531 4.932-9.556.394-.608.867-.808 1.524-.759.304.022.633-.016.905.091.655.258 1.325.292 2.013.36.823.083 1.605.431 2.446.528.705.08 1.253 1.02 1.135 1.758-.049.3-.075.618-.192.894a130.53 130.53 0 0 1-1.76 3.973c-.387.83-.884 1.604-1.158 2.492-.11.354-.367.663-.555.993-.19.331-.394.654-.555.997a.501.501 0 0 0 .021.42c.069.103.27.208.378.18 2.104-.552 4.234-.481 6.372-.295.852.074 1.655.293 2.39.734.69.413 1.161.972 1.24 1.815.149 1.6.301 3.195-.125 4.781-.079.293-.16.62-.106.905.181.935-.02 1.838-.207 2.728-.535 2.546-.85 5.125-1.151 7.704a12.12 12.12 0 0 0 .062 3.432c.101.601.171 1.21.22 1.818.058.701.206 1.36.67 1.915.312.375.379.797.319 1.285-.046.37.045.757.075 1.137.026.344-.11.579-.426.692-.432.154-.86.337-1.306.427-.61.125-1.154.35-1.685.678-.575.354-1.19.23-1.734-.124-.447-.291-.862-.634-1.29-.954-.439-.328-.752-.759-.995-1.242-.799-1.59-1.293-3.26-1.367-5.048-.038-.916-.093-1.832-.117-2.289.06-2.91.326-5.343.796-7.747zM110.32 43.893c.152.022.305.058.456.055 2.396-.056 4.7.504 7.001 1.064.812.198 1.607.484 2.385.79 1.102.433 1.644 1.355 1.835 2.456.142.822.174 1.67.18 2.506.006.782-.294 1.496-.72 2.148a1.299 1.299 0 0 1-.309.336c-1.254.908-2.564 1.682-4.185 1.67-.458-.005-.916-.043-1.372-.028-.458.015-.937.002-1.368.131-1.42.424-2.877.34-4.323.383-1.603.048-3.21-.002-4.814.036-.836.02-1.67.121-2.501.213-.608.067-1.224.126-1.81.282-1.096.293-2.113.197-3.08-.403-.062-.039-.145-.045-.217-.07-.242-.08-.652.116-.743.38a122.05 122.05 0 0 0-2.306 7.436c-.346 1.263-.14 2.572-.252 3.856-.003.05.062.12.11.162.057.05.128.104.198.11.228.022.464.062.685.024a32.715 32.715 0 0 1 4.564-.46c.076-.001.153-.01.228-.024 2.267-.447 4.568-.407 6.862-.457.536-.011 1.08.023 1.604-.058.964-.15 1.813.109 2.635.57.533.299 1.076.579 1.611.874.128.07.335.161.344.257.042.45.047.906.02 1.358-.008.127-.16.255-.264.366-.156.168-.334.315-.49.482-.365.386-.496.944-.972 1.26-.602.399-1.308.406-1.965.588-.805.225-1.67.153-2.447.573-.31.168-.746.144-1.124.142-2.304-.008-4.574.388-6.863.564-1.515.117-3.01.498-4.512.777-.215.04-.486.12-.605.276-.4.529-.947.686-1.55.856-.696.198-1.331.22-2.003-.049-.521-.208-1.028-.159-1.521.18-.147.102-.466.074-.647-.016-.496-.245-.882-.05-1.275.21-.29.194-.57.135-.857-.024-1.465-.808-2.226-2.15-2.42-3.707-.352-2.812-.418-5.65.047-8.465.138-.83.29-1.654.36-2.494.03-.378.119-.756.222-1.124.682-2.429 1.396-4.849 2.288-7.21a58.149 58.149 0 0 1 2.7-6.07c2.1-4.083 4.334-8.09 6.96-11.868 1.002-1.444 1.953-2.924 2.96-4.365 1.54-2.2 3.286-4.228 5.188-6.12.324-.324.66-.642 1.027-.913.813-.598 1.707-.63 2.606-.227.773.348 1.448.855 2.072 1.428.608.557 1.33.701 2.128.648 1.295-.087 2.592-.156 3.89-.229.305-.017.613-.051.916-.027 2.286.185 4.586.187 6.86.525.302.045.604.125.908.129 1.995.017 3.946.49 5.935.572.381.015.762.073 1.138.141 2.003.365 3.238 2.298 3.108 3.978-.036.457-.057.92-.139 1.37-.258 1.422-.935 2.57-2.233 3.294-.421.235-.885.368-1.32.184-.657-.279-1.337-.247-2.015-.337-1.133-.15-2.27-.352-3.37-.66-1.257-.35-2.546-.505-3.82-.69-.976-.142-1.925-.437-2.926-.464-.914-.024-1.822-.216-2.735-.3-1.219-.11-2.44-.19-3.661-.277-.305-.022-.64.056-.911-.046-1.082-.41-2.119.061-3.173.116-.3.015-.563.247-.72.522-.57.995-1.155 1.982-1.682 2.999-.738 1.424-1.418 2.878-2.144 4.308-.519 1.021-1.033 2.04-1.23 3.182-.031.185.063.321.251.323.683.01 1.365.001 2.047 0h1.377c1.299-.066 2.598-.09 3.888.092zm41.544 11.34c.066.285.231.563.408.803.493.673 1.17.962 2.002.852.378-.05.763-.086 1.127-.19a56.58 56.58 0 0 0 2.842-.887c1.298-.449 2.577-.95 3.873-1.405.576-.201 1.177-.497 1.757-.477.77.026 1.272-.404 1.875-.694.61-.292.917-.78 1.076-1.399.057-.222.1-.447.145-.671.694-3.52 1.323-7.056 2.097-10.56.838-3.8 1.615-7.62 2.878-11.313.096-.28.1-.603.085-.903a.673.673 0 0 0-.344-.557c-.342-.202-.728-.37-1.088-.222-1.34.55-2.706 1.057-3.813 2.053-.624.562-1.283 1.086-1.935 1.616-.768.626-1.554 1.232-2.055 2.117-.984.77-1.444 1.952-2.247 2.876-.793.91-1.347 2.028-2.007 3.053-.249.385-.472.791-.76 1.144-.731.897-1.26 1.918-1.795 2.928-.824 1.554-1.64 3.106-2.574 4.6-.686 1.1-1.297 2.256-1.27 3.631.006.291-.187.58-.246.879-.089.448-.14.904-.203 1.328.055.49.07.955.172 1.399zm12.25 13.846c.268-1.97.4-3.958.672-5.927.22-1.589.36-3.194.765-4.756.075-.289.06-.603.07-.906.002-.064-.056-.165-.11-.186-.124-.049-.32-.128-.386-.073-.898.736-2.05 1.02-2.981 1.695-.237.172-.565.222-.855.318-1.815.597-3.665 1.07-5.523 1.513-.37.087-.75.14-1.128.189-.681.09-1.368.142-2.046.248-1.228.193-2.441.197-3.626-.22-1.146-.404-2.326-.665-3.413-1.294-1.963-1.137-2.98-2.827-3.254-4.989-.254-1.997-.086-3.957.764-5.838.661-1.461 1.206-2.976 1.83-4.455.266-.633.58-1.247.91-1.85 1.03-1.876 2.065-3.748 2.898-5.724.117-.279.283-.542.45-.797.372-.575.769-1.118 1.044-1.77.26-.617.76-1.136 1.171-1.687.182-.243.473-.425.596-.69.425-.914 1.134-1.616 1.698-2.423 1.976-2.829 4.272-5.387 6.57-7.947 1.196-.969 2.103-2.212 3.148-3.325 1.414-1.504 2.897-2.943 4.348-4.414 1.342-1.36 2.713-2.696 4.011-4.1 1.569-1.694 3.501-2.685 5.725-3.155.599-.126 1.214-.155 1.815.06.503.181 1.024.317 1.518.518 1.09.443 1.704 1.25 1.773 2.445.013.227.024.456.063.68.053.3.518.689.827.71.152.011.306.022.457.014 2.31-.129 4.141.838 5.672 2.483.26.278.535.553.73.873.278.457.466.958.53 1.505.106.927.04 1.836-.253 2.72-.289.871-.613 1.73-.913 2.597-.374 1.081-.74 2.165-1.109 3.248-.098.288-.143.608-.296.862-1.038 1.724-1.524 3.655-2.122 5.545-.184.581-.29 1.19-.658 1.704-.086.12-.176.286-.161.42.134 1.2-.705 2.17-.769 3.318-.782 1.905-1.012 4.003-2.023 5.83a1.6 1.6 0 0 0-.168.427c-.157.747-.3 1.498-.45 2.247-.137.68-.682 1.2-.736 1.916-.015.183.166.519.331.512.153-.006.317.011.453-.042.635-.245 1.198.01 1.766.232.067.026.165.1.164.15-.005.137-.008.339-.094.4-.75.527-1.492 1.05-2.09 1.766-.238.286-.56.565-.9.69-1.057.389-1.49 1.192-1.736 2.214-.284 1.187-.708 2.341-.961 3.534-.35 1.643-.904 3.24-1.096 4.92-.034.298-.174.584-.244.88-.258 1.112-.646 2.182-.778 3.338-.11.969-.519 1.902-.676 2.887-.155.976-.422 1.934-.64 2.9-.018.075-.031.153-.066.22-.576 1.08-.805 2.31-1.412 3.369-.256.446-.205 1.133-.805 1.319-.427.132-.903.153-1.356.146-.804-.015-1.398.586-2.165.684-.183.024-.381.262-.493.448-.239.402-.517.759-.894 1.032-.254.184-.562.307-.86.206a17.59 17.59 0 0 1-1.919-.742c-.424-.199-.735-.547-.766-1.065-.063-1.069-.13-2.137-.195-3.206.057-1.46.159-2.905.356-4.351zM72.743 53.098c-.043-.115-.172-.256-.28-.273a.53.53 0 0 0-.398.144c-.156.158-.306.35-.378.556-.3.863-.665 1.695-1.086 2.505-.069.133-.123.285-.136.433-.136 1.592-1.074 3.006-1.023 4.637-.558 1.158-.346 2.388-.329 3.598.002.112.16.24.27.327.112.09.539-.096.587-.236.025-.072.06-.14.078-.214.182-.738.353-1.48.546-2.216.405-1.546.658-3.128 1.22-4.637.261-.702.203-1.499.589-2.189.341-.609.44-1.29.35-2.04 0-.1.038-.263-.01-.395zm7.933-23.57c.81-1.805 1.481-3.682 2.715-5.27.242-.31.634-.45 1.009-.313.43.158.866.309 1.28.503.493.23.898.582 1.189 1.05.242.389.49.775.714 1.173.413.73.812 1.47 1.216 2.205-.002 1 .363 1.942.48 2.924.139 1.16.065 2.285-.338 3.39-.394 1.075-.753 2.164-1.135 3.243-.076.215-.155.448-.297.618-.797.955-1.047 2.191-1.685 3.226-.178.288-.126.594.073.853.168.22.131.431.007.627-.246.385-.515.755-.778 1.129a5.341 5.341 0 0 0-.886 2.091c-.175.903-.537 1.73-1.226 2.408-.293.289-.597.427-.96.542-.23.073-.322.274-.225.532.115.304.124.668-.125.847-.466.335-.415.954-.85 1.31-.371.307-.335.826-.288 1.272.021.204.316.405.292.581-.06.449-.142.937-.373 1.312-1.017 1.645-1.624 3.44-2.146 5.283-.29 1.027-.702 2.02-1.083 3.02-.135.352-.003.517.262.737.333.278.264.689.11 1.056-.767 1.83-1.541 3.658-2.597 5.347-.213.341-.364.663.042.975.048.036.095.15.073.19-.252.471-.452.95-.495 1.498-.016.205-.174.43-.33.583-.434.43-.883.849-1.361 1.228-.757.6-2.068.521-2.741-.214-.72-.787-1.373-1.638-2.038-2.474a1.58 1.58 0 0 1-.295-.615c-.462-2.02-.838-4.052-.531-6.139.032-.221.058-.534.203-.632.693-.467.568-1.21.72-1.863.137-.594.328-1.176.453-1.772.171-.816.607-1.57.529-2.451-.026-.28.163-.579.255-.868.23-.725.501-1.44.68-2.177.18-.74.268-1.501.399-2.253.026-.15.103-.305.085-.449-.126-1.002.147-1.967.238-2.948.016-.179-.168-.312-.27-.242-.647.438-1.328.697-2.13.666-.284-.011-.596.133-.856.277-.626.348-1.281.379-1.983.383-1.692.01-3.35-.235-5.007-.515-.537-.091-1.067-.137-1.592-.016-.457.106-.83.35-1.024.823-.47 1.137-.54 2.371-.887 3.538 0 1.553-.638 2.977-.906 4.475-.502.96-.325 2.107-.848 3.073-.133.247-.097.596-.103.9-.019.923-.09 1.831-.5 2.684-.236.491-.273 1.017-.248 1.566.046 1.041-.359 1.945-1.022 2.727a7.376 7.376 0 0 1-2.932 2.106c-.352.14-.732.252-1.034.468-.733.526-1.429.337-2.165.031-.874-.362-1.473-1.08-2.212-1.612-.447-.323-.784-.705-1.088-1.147-.772-1.123-1.041-2.39-.964-3.71.098-1.679.225-3.363.475-5.024.18-1.203.287-2.424.656-3.606.225-.72.229-1.508.348-2.262.419-2.644.992-5.258 1.506-7.883a297.226 297.226 0 0 1 1.84-8.753c.101-.444.161-.917.358-1.32.587-1.201.664-2.503.822-3.79.012-.093-.14-.268-.25-.302a2.137 2.137 0 0 0-.673-.081c-1.845.04-3.637-.269-5.4-.791a2.412 2.412 0 0 0-.67-.12 3.338 3.338 0 0 1-1.546-.37c-.759-.386-1.55-.633-2.422-.591-.472.023-.885-.206-1.297-.414-.753-.38-1.54-.67-2.362-.859-.372-.085-.8.134-.919.506a27.24 27.24 0 0 0-.512 1.76c-.627 2.529-1.43 4.992-2.67 7.296-.11.201-.235.405-.286.623-.354 1.506-1.11 2.827-1.864 4.154-.68 1.197-1.214 2.46-1.668 3.763-.426 1.222-.842 2.462-1.421 3.615-.588 1.17-.958 2.414-1.457 3.612-.32.772-.546 1.582-.94 2.332-.17.326-.231.726-.274 1.101-.047.405-.195.732-.501.988-1.1.92-1.67 2.152-2.09 3.485a72.282 72.282 0 0 1-1.053 3.028 4.319 4.319 0 0 1-.427.811c-1.475 2.321-1.485 2.317-2.303 4.649-.175.499-.511.709-.994.818-1.713.39-2.433.021-2.824-1.742-.246-1.107-.595-2.217-.578-3.38a4.6 4.6 0 0 0-.102-.911c-.45-2.36-.313-4.718.005-7.077.083-.604.126-1.205.443-1.765.182-.321.243-.722.31-1.096.255-1.43.478-2.869 1.048-4.221.18-1.532.784-2.949 1.2-4.416.858-3.024 2.118-5.889 3.394-8.749.28-.627.565-1.252.852-1.876.893-1.942 1.784-3.886 2.685-5.825.31-.67.113-1.102-.555-1.114-1.53-.029-3.06-.04-4.589-.055-.306-.003-.612.016-.918.02-2.085.03-2.496-.081-4.27-1.276-.328-.222-.642-.389-1.041-.403a25.258 25.258 0 0 1-1.828-.112c-.307-.032-.576-.194-.701-.513-.367-.934-.587-1.888-.55-2.907.033-.938.459-1.624 1.24-2.055 1.21-.669 2.49-1.157 3.882-1.317 1.744-.2 3.476-.559 5.248-.376 1.576-.312 3.211-.015 4.774-.472.144-.042.304-.03.457-.038 3.284-.173 6.567-.366 9.852-.512 2.93-.13 9.557.05 11.916.28.729.294 1.51.17 2.263.277.291.041.65.03.894-.108.9-.505 1.426-.004 1.932.626.718.894 1.433 1.79 2.156 2.68.215.263.651.194.71-.126.181-.997.67-1.865 1.11-2.754.133-.267.325-.517.535-.731.398-.405.89-.618 1.459-.442.581.178 1.183.342 1.713.628.871.47 1.712 1.004 2.526 1.568.367.255.665.627.95.982.287.355.498.771.779 1.132 1.303 1.668 1.394 3.497.74 5.425-.171.504-.377.998-.579 1.492-.492 1.204-.944 2.424-1.203 3.7-.09.446-.066.913-.088 1.37-.01.174.222.471.403.488 1.066.097 2.065.524 3.157.548.828.019 1.655.242 2.475.411 3.296.682 6.64 1.04 9.97 1.497.377.051.747.158 1.122.226.218.04.63-.25.693-.507.108-.443.19-.892.281-1.339-.348-.773-.054-1.473.225-2.19a41.793 41.793 0 0 1 2.313-4.986c.295-.535.577-1.079.834-1.633.092-.199.1-.44.127-.664.008-.065-.043-.142-.08-.206-.075-.131-.212-.166-.375-.065-.321.198-.632.411-.947.618.066-.023.05-.109.08-.174zm203.66-7.545c-1.192.225-2.378.485-3.575.678-.838.135-1.612.44-2.384.754-.63.256-1.323.489-1.813.929-.494.444-.549 1.221-.804 1.85-.685 1.69-1.425 3.358-2.124 5.043-.202.487-.357.995-.494 1.503-.03.106.108.265.19.384.016.022.15-.013.21-.05 1.603-1.02 3.102-2.185 4.545-3.413.751-.64 1.574-1.175 2.299-1.86 1.504-1.421 2.761-3.037 4.021-4.659.182-.234.284-.53.221-.41.226-.577-.047-.795-.291-.749zm-20.704 38.992c.009.07.029.17.075.194.122.062.304.164.39.117 1.352-.735 2.473-1.794 3.709-2.694a47.774 47.774 0 0 0 8.396-7.787c1.283-1.518 2.563-3.044 3.515-4.805.144-.267.25-.554.366-.835.056-.135-.105-.528-.244-.601-.27-.14-.528-.34-.815-.399-1.271-.267-2.56-.46-3.86-.32-1.07.114-2.126.186-3.203.058-.52-.062-1.072 0-1.589.107-.455.095-.808.396-.963.884-.436 1.383-.872 2.766-1.334 4.14-.487 1.448-.95 2.902-1.7 4.25-.294.528-.474 1.123-.68 1.697-.335.933-.594 1.898-.991 2.802-.212.481-.528.884-.583 1.457-.05.51-.33.998-.463 1.367-.017.217-.035.295-.026.368zm36.912-36.03c-.395.632-1.005 1.13-1.522 1.686-.415.447-.829.894-1.248 1.336-.473.498-1.044.933-1.403 1.502-.357.567-.452 1.293-.754 1.904-.437.888-.944 1.743-1.447 2.597-.318.54-.814.922-1.338 1.234-.924.55-1.739 1.211-2.524 1.95-.6.565-1.407.953-2.291.822-.769-.114-1.53.065-2.282-.035-.475-.064-.672.187-.936.46-.35.36-.83.32-1.287.356-.132.01-.283.12-.374.228-.115.138-.062.292.08.405.06.048.115.101.17.152a6.095 6.095 0 0 1 1.469 2.03c.125.279.242.567.412.818.886 1.313 1.08 2.832 1.314 4.338.044.289-.028.596-.044.895-.055.994-.32 1.954-.458 2.932-.112.792-.184 1.523-.996 1.914-.556.73-1.124 1.448-1.663 2.189-.358.492-.664.996-1.205 1.355-.357.236-.657.67-.811 1.079-.487 1.285-1.648 1.983-2.47 2.972-.13.157-.393.228-.61.284-.799.206-1.358.734-1.717 1.422-.516.99-1.274 1.658-2.22 2.232-.902.547-1.809 1.101-2.632 1.798-.747.632-1.67 1.047-2.465 1.654-.903.69-1.96 1.174-2.942 1.76-.459.274-.964.512-1.336.88-.785.779-1.793 1.125-2.746 1.584-.789.38-1.618.485-2.439.137-.503-.214-.893-.03-1.276.226-.25.17-.474.385-.688.602-.222.226-.413.074-.61-.018-.205-.095-.45-.255-.61-.024-.448.651-1.078 1.019-1.747 1.414-.82.486-1.578.465-2.394.17-.94-.34-1.82-.812-2.578-1.466a24.298 24.298 0 0 1-1.823-1.742c-.646-.684-1.008-1.511-1.112-2.46-.183-1.67-.569-3.32-.458-5.016.035-.535.017-1.073.08-1.603.561-4.862 1.323-9.689 2.477-14.45.72-2.97 1.389-5.954 2.107-8.925.376-1.556.64-3.141 1.195-4.652.21-.572.384-1.156.562-1.738.27-.876.529-1.755.79-2.633.627-2.12 1.124-4.28 1.982-6.328.264-.631.579-1.25.76-1.906.593-2.142 1.52-4.156 2.338-6.211.536-1.347 1.171-2.655 1.783-3.971.226-.487.472-.955.545-1.5.043-.332.32-.515.598-.638.194-.086.467-.2.625-.128 1.04.476 2.153.746 3.182 1.278.935.484 1.975.772 2.928 1.256.419.214.895.193 1.326-.045.603-.331 1.198-.674 1.798-1.01 1.188-.664 4.669-2.128 5.89-2.48 2.45-.705 4.968-.94 7.492-.804 2.289.123 4.578.206 6.868.3.38.016.77.032 1.136.121.524.128 1.008.36 1.333.83.217.314.402.657.66.935.752.81 1.173 1.778 1.412 2.836.068.3.126.602.353.827.936.93 1.358 2.213 2.216 3.195.05.057.102.123.12.194.324 1.268 1.033 2.362 1.588 3.525.236.493.332 1.013.28 1.56-.038.38-.062.76-.091 1.141-.094.829.136 1.736-.322 2.468zm49.164 28.308c-.011.059.052.136.092.197.083.13.24.186.38.074.356-.284.74-.556 1.022-.906 2.878-3.564 5.747-7.135 7.992-11.153.111-.2.192-.429.344-.592.537-.577.788-1.307 1.07-2.008.598-1.488 1.175-2.998 2.023-4.35 1.101-1.757 1.835-3.683 2.793-5.5.536-1.016.67-2.005.24-3.07-.171-.423-.32-.855-.496-1.276-.075-.18-.222-.225-.36-.13-.742.52-1.534.947-2.11 1.71-.64.847-1.369 1.654-2.18 2.332a5.746 5.746 0 0 0-1.318 1.545c-.383.66-.62 1.442-1.122 1.983-.58.627-.91 1.393-1.44 2.042-.62.759-1.202 1.606-1.559 2.51a19.106 19.106 0 0 1-1.396 2.872c-.553.917-.982 1.891-1.404 2.87-.726 1.687-1.317 3.411-1.399 5.273-.013.298-.108.6-.21.885-.34.939-.57 1.898-.611 2.905-.119.59-.241 1.188-.351 1.787zm-4.484 8.215c-1.874.025-3.633-.43-5.313-1.237-.344-.165-.7-.3-1.054-.446-.188-.078-.51.088-.543.284-.06.373-.117.748-.163 1.123-.055.454-.026.933-.16 1.36-.281.908-.456 1.317-1.582 1.267-1.22-.054-2.443.018-3.645-.323-.898-.255-1.828-.09-2.739-.02-1.447.11-2.89.265-4.335.417-.759.078-1.515.19-2.273.281-.379.047-.76.079-1.14.122-1.368.153-2.746-.098-4.12.157-1.276.237-2.587.213-3.881.223-1.857.017-3.635.419-5.401.905-1.176.324-2.334.716-3.488 1.11-.43.147-.833.38-1.24.589-.272.138-.513.389-.796.44-1.08.201-1.87 1.015-2.92 1.298-.764.205-1.428.338-2.208-.009-.745-.33-1.56-.585-2.428-.391-.197.044-.452-.048-.648-.144-.89-.437-1.77-.896-2.652-1.352-1.173-.609-1.776-1.742-1.534-3.033.38-2.029.707-4.065 1.19-6.076.393-1.631.674-3.293.925-4.954.126-.837.274-1.657.562-2.451.078-.216.163-.432.21-.656.772-3.672 2.118-7.18 3.109-10.79.242-.881.355-1.801.632-2.67.252-.795.696-1.528.968-2.318.797-2.311 1.55-4.637 2.321-6.957 1.256-3.775 2.832-7.425 4.382-11.083.683-1.612 1.599-3.126 2.414-4.682.147-.28.394-.451.685-.576.581-.249 1.178-.292 1.799-.213 3.343.426 5.6 1.641 7.975 3.679.752.645 1.527 1.288 1.738 2.353.042.213.228.395.343.593 1.09 1.893 1.206 3.918.77 6-.11.518-.348 1.01-.536 1.51-.534 1.425-1.238 2.792-1.45 4.326-.75 1.589-1.34 3.238-1.845 4.919-.47.709-.736 1.508-1.032 2.296a5.368 5.368 0 0 1-.508 1.024c-.418.647-.708 1.35-1.022 2.048-.343.764-.752 1.501-1.172 2.227-.729 1.254-1.442 2.511-1.898 3.898-.311.945-.717 1.845-1.173 2.734-.484.943-.807 1.968-1.187 2.963-.095.252.182.676.426.68.38.006.786.08 1.138-.024 1.551-.458 3.193-.331 4.747-.767.434-.12.912-.096 1.37-.113 1.223-.046 2.438-.117 3.656-.28 1.206-.162 2.44-.164 3.661-.161 1.758.003 3.517.093 5.275.109 1.143.01 2.282-.042 3.42.161.435.077.908-.037 1.358-.105.114-.018.268-.18.293-.3.062-.297.072-.606.084-.91.123-2.989.483-5.944 1.185-8.855.286-1.188.546-2.382.845-3.567.697-2.761 1.882-5.337 3.136-7.87a88.93 88.93 0 0 1 4.26-7.59c1.172-1.882 2.433-3.7 3.87-5.386.743-.87 1.551-1.697 2.407-2.457 1.547-1.375 3.363-1.758 5.34-1.142 1.6.498 3.215.97 4.673 1.834.195.116.412.229.63.262 1.127.173 1.97.813 2.695 1.628.614.69 1.581.914 2.14 1.68.12.164.38.266.594.317.593.14 1.13.477 1.765.468.556-.008 1.026.208 1.47.55a5.18 5.18 0 0 0 1.832.92c.453.122.803.434 1.113.78.622.692 1.024 1.517 1.376 2.367.058.139.115.3.101.443-.066.69.172 1.379.102 2.043-.087.825-.333 1.647-.608 2.436a458.603 458.603 0 0 1-3.093 8.62c-.504 1.357-1.109 2.676-1.682 4.006-.088.207-.246.384-.376.572-.868 1.257-1.77 2.491-2.593 3.776-.53.83-1.106 1.63-1.474 2.58-.295.763-.72 1.525-1.345 2.115-.514.487-.865 1.055-1.03 1.752-.05.208-.204.405-.35.574-.495.58-1.006 1.146-1.515 1.715-.102.113-.268.194-.317.323-.432 1.125-1.355 1.816-2.203 2.59-.787.718-1.457 1.554-2.42 2.081-.531.29-.983.727-1.458 1.113a2.052 2.052 0 0 1-1.035.45 3.45 3.45 0 0 0-.67.146c-1.836.64-1.834.648-3.29.689-.535.015-1.07.002-1.605.002a36.37 36.37 0 0 0-1.835-.02zM880.04 250.752c-1.564-.406-3.197-.617-4.589-1.403-1.199-.677-2.522-1.228-4.07-1.368-1.923-.173-2.798-1.42-3.203-2.796-.693-2.35-.561-4.863 0-7.347.323-1.44 1.163-2.84 1.644-4.278.559-1.67 1.68-2.985 3.214-4.155 1.015-.773 2.06-1.212 3.32-1.127 3.013.203 6.035.334 9.124.005.501-.053 1.003.051 1.506.08.928.05 1.562.495 1.852 1.169.902 2.104 1.906 4.185 2.522 6.38.687 2.447.268 4.91-2.136 7.044-.25.223-.414.542-.695.708-1.509.885-1.836 2.228-2.244 3.527-.221.703-.312 1.424-.45 2.084-.497.382-.85.811-1.3.97-1.475.524-2.963.905-4.495.507zm1.165-58.267c.466-2.397.597-4.91 2.088-7.118.306-.455.475-1.033.539-1.565.181-1.512.669-2.958 1.223-4.384.263-.675.286-1.331.317-2.012.02-.4.032-.867.252-1.192 1.456-2.166 1.727-4.684 2.79-6.97.997-2.15 1.669-4.416 2.904-6.487.072-.122.158-.244.192-.375.72-2.807 1.856-5.517 2.626-8.307.338-1.224.655-2.362 1.632-3.34a4.532 4.532 0 0 0 1.084-1.788c1.42-4.525 3.63-8.74 6.194-12.83.9-1.435 1.695-2.923 2.574-4.368.884-1.45 1.816-2.877 2.725-4.316 1.157-1.831 2.723-3.32 4.584-4.556 1.783-1.185 3.67-1.673 5.882-1.429 3.1.343 6.06 1.102 8.966 1.99 1.639.502 3.15 1.39 4.612 2.25 1.464.863 2.818 1.884 4.182 2.88 1.216.887 1.729 2.725 1.044 4.06-.638 1.243-1.317 2.509-2.22 3.598-1.733 2.092-2.803 4.605-4.982 6.405-1.421 3.243-4.2 5.74-5.965 8.792-.142.245-.262.508-.447.722-.466.537-.916 1.1-1.463 1.561-.574.485-.979.982-1.191 1.693-1.084 3.621-3.526 6.698-5.203 10.084-1.385 1.22-1.718 2.892-2.338 4.424-.38.94-.9 1.681-1.744 2.35-1.08.854-1.6 2.05-1.4 3.329.239 1.527-.389 2.68-1.692 3.556-.77.52-1.4 1.043-1.442 1.963-1.494 2.707-2.136 5.728-3.938 8.326-.235.338-.37.77-.423 1.168-.384 2.868-2.325 5.38-2.544 8.286-.092 1.223-.336 2.446-.361 3.667-.024 1.143-.585 2.112-.98 3.148-.4 1.048-.706 2.104-1.86 2.737-.24.133-.385.422-.57.641-1.22 1.435-2.294 2.914-2.52 4.782-.194 1.612-1.589 2.287-3.012 2.781-.678.236-1.471.195-2.212.217-.256.006-.59-.114-.752-.287-.81-.86-1.798-1.264-3.079-1.298-1.025-.026-2.05-.236-3.043-.467-1.038-.242-1.866-.845-2.23-1.775-.393-1.004-.878-2.065-.861-3.112.05-3.128-.044-6.271.755-9.617.76-2.415.787-5.148 1.307-7.817zm-428.89-43.883c.146.473.373.487.565.037.026-.058-.172-.229-.266-.347-.106.106-.318.249-.3.31zm-4.985 59.012c-.126.055-.358.106-.358.162-.003.168.086.338.139.507l.364-.167-.145-.502zm-10.174-40.599c.036-.183.041-.39-.005-.567-.04-.15-.167-.271-.256-.406l-.035 1.08c.103-.034.286-.05.296-.107zm11.704 51.432c-.168-.286-.532-.5-.848-.609-.431-.149-.93.365-1.012 1.004-.071.566-.166 1.15-.1 1.707.038.322.318.698.587.885.604.421 1.985-.59 1.95-1.528-.154-.408-.295-.98-.577-1.459zm-2.564-32.884c1.062-1.922 1.253-3.924.322-5.98-.143-.317-.568-.344-.879-.007-1.11 1.203-1.58 2.536-.664 4.173.367.654.57 1.415.847 2.127-.394.242-.44.363-.146.303.032-.006.017-.272.023-.42.17-.062.427-.069.497-.196zm-.989 8.214c0 .221.32.445.493.668.109-.136.287-.258.311-.41.054-.351.035-.717.045-1.077.417-.278.46-.413.14-.341-.036.008-.016.294-.022.452-.604-.207-.966.06-.967.708zm-14.026-49.49c-.564-.161-1.108-.052-1.447.434-.752 1.077-1.328 2.277-2.515 2.97-.595.346-1.157.96-1.48 1.602-.69 1.379-1.347 2.781-2.447 3.822-1.207 1.142-1.432 3.142-3.13 3.89-.909.4-.546 1.873-1.18 2.51-2.521 2.526-4.03 5.98-6.697 8.368-1 .895-1.62 2.072-1.635 3.549-.008.798-.155 1.623-.743 2.121-2.466 2.09-3.511 5.363-5.608 7.764-.437.5-.725 1.507-.582 2.154.182.82 1.123.746 1.818.681 3.602-.335 7.202-.703 10.803-1.047 1.62-.155 3.24-.376 4.864-.4a282.63 282.63 0 0 1 10.816.052c.673.016 1.337.499 2.011.747.833.306 1.847-.237 2.158-1.146.587-1.713.76-3.442-.192-5.063-.398-.68-.686-1.291-.69-2.125-.012-2.929-.139-5.858-.138-8.787 0-1.158.035-2.384.38-3.455.74-2.301.8-4.532.199-6.882-.284-1.105-.204-2.315-.307-3.476-.012-.125-.152-.239-.232-.357-.138.122-.344.213-.405.371-.843 2.171-1.465 4.356-1.182 6.806.177 1.527-.037 3.105-.075 4.66-.96 1.592-.077 3.475-.668 5.124-.064.18-.15.353-.227.53-.076-.152-.206-.299-.219-.456-.08-.966-.17-1.935-.187-2.903-.037-2.141.096-4.293-.072-6.42-.353-4.472-.903-8.926-.741-13.429.027-.758-.227-1.53-.351-2.294.377-.016.411-.468.1-1.346l-.724-.609-.09.507.92-.015-.105 1.548zm3.05 76.234c.492 1.03.818 2.15 1.242 3.22.063.159.272.25.413.374.183-.309.388-.606.539-.931.075-.164.052-.381.071-.574.137-1.371-.85-2.543-.538-3.994.241-1.125.192-2.327.249-3.497.066-1.364.012-2.746.18-4.094.226-1.794-.083-3.5-.459-5.216-.218-.991-.894-1.632-1.999-1.462-1.824.282-3.557-.597-5.366-.352-1.646.222-3.208-.334-4.81-.642-1.76-.339-3.647.026-5.374-.41-1.664-.422-3.23-.016-4.81-.128-2.298-.16-4.723.368-6.913-.975a2.742 2.742 0 0 0-1.569-.376c-2.916.232-5.718-.96-8.622-.8-1.944-.833-3.102.105-3.89 1.955-1.81 4.244-3.936 8.295-6.147 12.313-1.274 2.318-1.958 5.012-2.956 7.514-.856 2.144-1.615 4.364-2.708 6.362-3.396 6.213-6.284 12.694-9 19.272-1.548 3.752-3.731 7.095-5.679 10.59-.695 1.246-1.686 2.008-3.094 1.988-1.266-.02-2.538.028-3.798-.094-2.764-.267-4.905-3.324-4.428-6.276a22.19 22.19 0 0 1 .65-2.837c2.285-7.601 4.779-15.12 7.54-22.534 3.242-6.112 4.762-13.046 7.803-19.25 1.934-3.945 3.091-8.323 5.706-11.893.43-.587.635-1.395.842-2.135.48-1.707 1.431-3.13 2.273-4.62.186-.329.575-.582.641-.923.774-3.979 3.481-6.744 5.415-9.968 1.66-2.768 2.81-5.903 4.99-8.301 1.075-2.695 2.653-5.076 4.012-7.595.728-1.35 1.26-2.775 2.56-3.675.401-.278.66-.922.82-1.457.286-.962.773-1.726 1.444-2.414 2.755-2.827 4.737-6.304 6.87-9.65.509-.8.818-1.773 1.41-2.481 3.985-4.772 7.037-10.37 11.348-14.859 1.027-1.069 1.755-2.467 2.642-3.695 1.663-2.301 3.256-4.662 5.338-6.578 1.378-1.268 2.525-2.73 3.172-4.642.33-.974 1.309-1.297 2.246-1.332 5.579-.211 9.364 1.87 14.079 6.35 1.354 1.287 2.302 3.025 3.904 4.046.605.386.43 1.014.176 1.541-.333.692-.732 1.35-.54 2.186.042.183.117.361.195.532.197.429.585.542.857.123 2.204-3.406 5.56-4.848 9.004-6.077 4.154-1.482 8.49-1.852 12.838-1.98 1.816-.054 3.599-.066 5.342-.766.823-.331 1.772-.444 2.66-.429 2.741.051 5.413-.436 8.08-.979 3.392-.69 6.834-.793 10.266-1.023 3.789-.255 7.577-.37 11.326-1.219 2.097-.474 4.322-.326 6.49-.41.718-.029 1.44.106 2.162.146 3.236.18 6.412-.702 9.715-.163 3.01.492 6.134.093 9.205.191 1.97.063 3.957.176 5.896.533 1.346.247 2.465.08 3.618-.644 1.094-.688 2.138-.274 2.923.668a306.804 306.804 0 0 1 6.087 7.524c1.186 1.518 2.086 3.212 2.045 5.299 1.121 2.487.622 4.997-.001 7.447a37.47 37.47 0 0 1-1.847 5.485c-1.133 2.644-3.136 4.298-5.806 4.73-2.128.345-4.303.422-6.46.506-.882.034-1.773-.23-2.66-.358-3.042-.44-5.972-1.558-9.063-1.755-.87-.055-1.714-.586-2.577-.878-.865-.292-1.739-.796-2.606-.793-2.986.012-5.645-1.197-8.364-2.28-.83-.33-1.774-.347-2.67-.45-.966-.111-1.827.483-2.095 1.41-.321 1.115-.726 2.22-.905 3.364-1.06 6.772-2.889 13.273-5.588 19.486-.38.877-.76 1.794-.915 2.737-.486 2.925-1.687 5.536-2.93 8.118-1.918 3.98-3.514 8.082-4.65 12.413-.588 2.24-1.52 4.37-2.239 6.57-1.555 4.756-3.192 9.479-4.412 14.362-.419 1.678-1.564 3.207-1.717 4.88-.156 1.697-.65 2.874-1.7 4.068-2.154 2.45-3.354 5.474-4.136 8.74-.63 2.635-1.431 5.222-2.19 7.819-.161.55-.47 1.05-.701 1.578-.612 1.392-1.997 2.27-2.164 3.972-.176 1.783-1.892 2.886-1.86 4.781-.844 1.326-1.076 2.856-1.302 4.403-.045.314-.401.701-.695.82-1.011.41-2.055.734-3.094 1.06-1.284.402-3.127-.267-3.785-1.58-.682-1.361-1.33-2.803-1.672-4.294-1.97-8.588-2.885-17.298-2.471-26.141.109-2.337.027-4.687 1.214-6.818.351-.63.388-1.49.484-2.257.682-5.452 2.307-14.043 3.716-19.407.786-2.991 1.443-6.015 2.26-9.003 2.462-8.994 6.114-17.482 9.14-26.233 1.197-3.46 2.669-6.807 4-10.212.136-.35.151-.755.241-1.128.152-.625-.549-1.734-1.123-1.765-.541-.03-1.085-.069-1.625-.05-4.705.16-9.416.216-14.11.544-2.67.187-5.193-.387-7.185-2.052-2.046-1.71-4.016-1.388-6.145-.999-.768.14-1.28.757-1.473 1.538-.229.926-.359 1.888-.445 2.844-.033.36.22.74.266 1.122.213 1.745.407 3.466-.407 5.146-.52 1.076-.358 2.282-.049 3.436l-1.13 1.384c-.89-.188-1.805.188-1.796 1.335.028 3.855.198 7.708.315 11.563-.457.209-1.167.29-1.323.651-.502 1.166-1.23 2.417-.683 3.75.693 1.685.237 3.32.137 4.982-.22.265-.46.515-.643.806.813.125.642-.4.523-.907.314-.086.736-.064.923-.278.72-.829 1.263-1.836 1.227-2.99-.065-2.038.269-4.1-.277-6.116 1.576.308 1.525.315 1.673 1.405.18 1.327.384 2.655.158 3.98-.48 2.813-.592 5.718-2.308 8.172-.603.864-.662 2.171-.968 3.277-.357 1.289-.969 2.568-1.005 3.87-.046 1.699.352 3.417.584 5.124.064.473.384.616.823.436.736-.716 1.047-1.194 1.18-1.72.193-.758.372-1.487.973-1.995-.153 1.792.12 3.733-1.032 5.485-.741 1.128-.986 2.493-.889 3.908.04.583-.02 1.174.012 1.758.094 1.664-.707 2.487-2.133 2.843-.209.053-.495.63-.431.866.148.545.392 1.144.77 1.517 1.353 1.34 1.76 2.845 1.246 4.771-.18.676.078 1.53.252 2.27.312 1.32.805 2.599 1.036 3.93.125.724-.135 1.524-.22 2.29-1.407 1.111-1.124 3.18-2.115 4.466-.844 1.101-.528 2.172-.36 3.291.063.412.422.444.727.059.404-.512.827-.662 1.29-.146.44.49.297 1.027.022 1.557-.324.623-.368 1.517-1.46 1.124-.978-.353-1.874.108-2.187 1.14-.61 2.015-1.702 3.814-1.882 6.047-.102 1.267-.964 2.47-1.534 3.676-.284.598-1.39.747-1.926.337-.148-.114-.31-.204-.453-.323-4.846-3.97-5.45-4.792-7.747-10.948-.539-1.446-.946-2.95-1.372-4.441-.103-.36-.193-.881-.032-1.145 1.312-2.147-.69-4.682.682-6.796.945.455.894 1.614 1.284 2.432zm-368.517-7.197c-1.152 4.076-1.577 8.319-2.36 12.478-.373 1.98-.691 3.975-1.04 5.962-.034.197-.108.385-.159.578-.1.378-1.072.913-1.345.684-.266-.225-.645-.55-.66-.849-.169-3.225-.792-6.488.388-9.626-.29-4.348 1.748-8.205 1.9-12.462a3.54 3.54 0 0 1 .272-1.17 55.036 55.036 0 0 0 2.268-6.779c.146-.556.477-1.082.823-1.518.204-.259.617-.46.912-.42.253.035.57.4.681.7.127.349.057.788.068 1.054.285 1.991.128 3.82-.605 5.476-.828 1.875-.607 3.996-1.143 5.892zm572.797-73.46c-.705-2.008-1.396-4.024-2.118-6.019-.394-1.088-.834-2.146-1.263-3.21-.515-1.281-1.28-2.264-2.24-2.938-.808-.567-1.666-1.018-2.512-1.49-.737-.412-1.55-.082-2.087.716-2.74 4.086-4.388 9.009-6.306 13.724.57-.128 1.189-.624 1.825-1.082.343-.247.616-.14.747.218.065.176.156.387.13.56-.089.593-.142 1.234-.36 1.752a80.468 80.468 0 0 1-1.939 4.256c-2.04 4.185-3.834 8.537-5.45 13.018-.674 1.875-1.375 3.706-.79 5.809-.257 1.179-.49 2.368-.777 3.534-.167.677-1.046 1.403-1.479 1.27-.749-.227-1.48-.554-2.234-.736-6.662-1.609-13.367-2.954-19.926-5.159-1.632-.547-3.27-1.24-4.941-1.385-2.204-.192-4.158-1.45-6.298-1.834-.363-.065-.785-.885-.74-1.345.116-1.217.14-2.466.391-3.64.722-3.373 1.823-6.57 3.005-9.723.483-1.291.977-2.582 1.4-3.907 1.623-5.062 1.72-9.947-.656-14.545-.513-.993-.874-2.128-1.398-3.109-.522-.977-1.067-2.004-1.771-2.727-1.558-1.598-3.175-3.122-4.865-4.476-1.027-.824-2.218-1.33-3.366-1.876-1.124-.535-2.15-.025-3.016 1.008a8.092 8.092 0 0 0-1.196 1.887c-.932 2.102-1.599 4.443-2.514 6.507-.648 1.463-2.353 2.727-2.532 4.445-.057.553.003 1.11-.028 1.666-.054.985-.393 1.91-.7 2.823-.761 2.252-1.369 4.582-1.976 6.908-1.658 6.358-2.769 14.076-5.332 19.916-.46 1.048-.653 2.3-.927 3.475-1.788 7.67-3.461 15.377-5.075 23.11-1.446 6.935-3.009 13.833-4.264 20.828-.359 1.998-.488 4.098-1.054 5.99-.93 3.105-1.333 6.347-1.885 9.533-.762 4.398-1.28 8.87-1.738 13.332-.36 3.512-.012 6.92 1.376 10 .546 1.214 1.166 2.272 2.022 3.186 1.411 1.509 2.511 3.488 4.221 4.556 1.441.9 2.82 1.487 4.383.173.643-.541 1.43-.796 2.164-1.129 2.4-1.09 4.49-2.847 6.252-5.266 1.463-2.006 2.423-4.366 2.488-7.147.035-1.468.192-2.864.744-4.144.961-2.227 1.246-4.637 1.428-7.097.059-.806.04-1.743.348-2.385 1.206-2.51 1.025-5.587 2.19-8.089.773-3.963 2.285-7.681 2.524-11.82.88-3.068 1.215-6.35 2.34-9.325.468-1.235 1.259-1.843 2.2-2.071 1.079-.261 2.143-.079 3.215.227 3.306.943 6.621 1.79 10.045 1.962 1.42.07 2.747.065 4.067-.788.548-.354 1.203-.7 1.773-.638 1.617.177 3.036-.432 4.409-1.524.219-.174.57.202.51.675-.338 2.605-1.037 5.146-.938 7.832.014.384-.165.786-.24 1.184-.38 1.988-.677 4.008-1.155 5.958-.476 1.943-1.134 3.816-1.713 5.72-.23.761-.658 1.535-.65 2.283.022 2.36-.976 4.316-1.448 6.473-.345 1.573-.822 3.1-1.191 4.667-.407 1.725-.272 3.719-1.744 4.88-.309.245-.41 1.076-.51 1.662-.94 5.525-.496 10.982.125 16.422.067.586.248 1.194.501 1.674 1.216 2.308 2.403 4.65 3.738 6.832 1.247 2.039 3.884 2.405 5.508.894 1.026-.955 1.998-2.021 2.945-3.112.337-.39.691-.974.755-1.515.171-1.458.651-2.709 1.234-3.937.05-.105-.028-.41-.118-.514-.773-.88-.42-1.72.064-2.602 2.397-4.379 4.244-9.16 6.078-13.947.368-.96.573-2.047-.057-2.825-.503-.62-.743-1.072-.418-1.995.925-2.619 1.913-5.218 2.659-7.92 1.34-4.854 2.845-9.567 5.155-13.83.527-.97.766-2.263.958-3.451.076-.466-.49-1.038-.501-1.582-.025-1.194-.018-2.584.781-3.354.934-.903.926-2.555 1.919-3.394.532-.449.57-1.42.385-2.242-.156-.7.062-1.226.536-1.393.755-.264 1.388-.596 2.026-1.332 1.5-1.725 2.357-3.888 2.852-6.271.425-2.041 1.115-3.833 2.114-5.47.59-.965 1.191-1.92 1.747-2.917.283-.507.391-1.067.085-1.672-.363-.714-.42-1.536-.017-2.28 1.451-2.685 2.147-5.95 3.907-8.401.313-.437.508-1.048.695-1.61.942-2.834 1.836-5.692 2.797-8.513.987-2.897 1.311-5.887 1.21-8.994-.086-2.632-.678-5.181-.518-7.849zm-536.228-5.04c-1.019-1.924-2.025-3.858-3.064-5.77-.567-1.042-1.183-2.048-1.788-3.063-.727-1.222-1.708-2.12-2.88-2.692-.986-.481-2.017-.842-3.037-1.225-.888-.333-1.788.079-2.318.929-2.71 4.347-4.078 9.414-5.777 14.304.638-.186 1.296-.743 1.977-1.264.368-.282.692-.204.88.14.092.167.22.368.209.542-.04.6-.034 1.243-.228 1.781a74.102 74.102 0 0 1-1.772 4.434c-1.898 4.374-3.493 8.889-4.87 13.513-.576 1.936-1.186 3.83-.294 5.861-.168 1.2-.31 2.407-.516 3.597-.12.69-1.05 1.504-1.562 1.417-.881-.15-1.754-.4-2.639-.504-7.808-.914-15.639-1.562-23.393-3.079-1.928-.378-3.88-.897-5.811-.87-2.547.037-4.921-1.014-7.415-1.175-.423-.027-.993-.8-.991-1.263.005-1.222-.1-2.467.063-3.661.47-3.43 1.395-6.725 2.416-9.983.418-1.335.847-2.67 1.193-4.032 1.324-5.203.92-10.073-2.292-14.403-.693-.936-1.226-2.028-1.932-2.95-.702-.919-1.434-1.884-2.319-2.53-1.956-1.43-3.971-2.78-6.05-3.953-1.267-.714-2.686-1.094-4.06-1.52-1.345-.416-2.469.196-3.352 1.314a7.857 7.857 0 0 0-1.17 2c-.847 2.188-1.363 4.585-2.195 6.733-.589 1.523-2.41 2.956-2.432 4.683-.007.556.121 1.105.145 1.66.04.987-.25 1.943-.505 2.882-.634 2.319-1.084 4.7-1.534 7.076-1.23 6.498-1.686 14.29-4.006 20.365-.416 1.09-.506 2.357-.695 3.553-1.239 7.815-2.342 15.655-3.372 23.515-.925 7.05-1.988 14.073-2.687 21.163-.2 2.024-.124 4.127-.574 6.068-.738 3.186-.857 6.451-1.153 9.679-.408 4.454-.528 8.956-.581 13.443-.042 3.53.72 6.885 2.635 9.808.755 1.152 1.578 2.14 2.657 2.961 1.778 1.355 3.248 3.212 5.321 4.098 1.748.748 3.391 1.189 5.043-.28.681-.604 1.556-.938 2.362-1.345 2.638-1.332 4.847-3.295 6.612-5.884 1.465-2.147 2.316-4.594 2.097-7.367-.116-1.464-.085-2.869.414-4.199.866-2.315.938-4.743.885-7.208-.017-.809-.138-1.739.148-2.409 1.117-2.622.583-5.665 1.654-8.275.468-4.021 1.808-7.877 1.643-12.02.685-3.142.722-6.442 1.697-9.519.404-1.275 1.248-1.963 2.302-2.285 1.21-.372 2.45-.3 3.711-.106 3.89.597 7.781 1.1 11.724.916 1.636-.075 3.157-.218 4.58-1.202.591-.409 1.305-.82 1.966-.818 1.873.01 3.435-.742 4.894-1.97.232-.196.676.141.656.619-.111 2.627-.644 5.228-.247 7.89.057.38-.106.798-.15 1.202-.225 2.017-.35 4.057-.693 6.046-.34 1.983-.897 3.914-1.358 5.869-.185.78-.593 1.594-.506 2.337.276 2.347-.66 4.396-.974 6.59-.228 1.6-.614 3.17-.872 4.766-.284 1.758.083 3.728-1.482 5.036-.329.274-.356 1.112-.408 1.704-.495 5.595.592 10.979 1.88 16.327.138.576.41 1.162.752 1.614 1.638 2.17 3.247 4.38 5.008 6.413 1.646 1.899 4.708 1.992 6.41.32 1.075-1.055 2.077-2.216 3.046-3.4.346-.421.69-1.038.707-1.583.042-1.468.46-2.762.999-4.044.046-.11-.076-.406-.19-.499-.98-.796-.664-1.668-.203-2.597 2.286-4.603 3.897-9.55 5.493-14.502.32-.992.44-2.095-.364-2.804-.642-.566-.966-.991-.69-1.943.784-2.7 1.64-5.388 2.21-8.154 1.024-4.966 2.25-9.81 4.447-14.29.501-1.02.639-2.332.734-3.532.038-.472-.67-.982-.742-1.523-.156-1.186-.295-2.569.54-3.418.976-.993.792-2.637 1.841-3.573.563-.502.503-1.472.205-2.271-.255-.68-.06-1.227.467-1.441.837-.341 1.529-.736 2.183-1.533 1.535-1.872 2.29-4.112 2.606-6.535.27-2.074.872-3.928 1.844-5.66.574-1.02 1.162-2.033 1.694-3.082.271-.533.336-1.101-.08-1.671-.492-.674-.643-1.486-.26-2.268 1.379-2.82 1.832-6.14 3.59-8.76.313-.468.472-1.095.627-1.675.78-2.915 1.502-5.85 2.306-8.757.825-2.984.88-5.993.435-9.073-.378-2.61-1.325-5.085-1.425-7.755zm571.911 91.173l.19-.22c-.048.07-.08.168-.148.204-.013.007-.028.01-.042.016zm-.443.34c-.14.332-.403.554-.754.696.164-.316.41-.553.754-.697zm64.45-36.946c.01-.233.01-.468.065-.693.024-.097.26-.247.334-.22.336.12.479.42.256.664-.136.149-.412.186-.656.249zm-105.156.816c.158-.21.359-.395.553-.582.022.366.063.737-.402.96-.056-.129-.199-.315-.151-.378zm96.598 21.01c-.083-.397-.194-.794-.214-1.195-.038-.784.324-1.346 1.136-1.596.044.524.123 1.05.092 1.57-.035.597-.392 1.027-1.014 1.221zm-105.154 1.197c-.11-.08-.217-.238-.218-.362-.003-.52.32-.718.812-.72.032.264.1.536.041.78-.092.382-.376.489-.635.302zm90.091-17.184c-3.78 6.737-7.87 13.316-13.376 18.984-3.561 3.667-7.393 7.113-11.203 10.564-1.77 1.603-3.669 3.09-5.781 4.34-1.49.883-2.828 1.991-4.192 3.045-1.64 1.267-3.293 2.47-5.27 3.309-1.439.61-2.731 1.532-4.046 2.373-2.546 1.628-5.416 2.422-8.417 2.882-1.325.204-2.564-.234-3.401-1.08-1.186-1.199-2.185-2.573-3.135-3.948-.735-1.064-.841-2.543-2.442-2.996-.845-1.1-.875-2.857.226-3.546.843-.527 1.282-1.098 1.328-1.938.117-2.123.235-4.251.192-6.374-.012-.567-.837-1.108-.883-1.689-.128-1.617-.368-3.312 1.096-4.634 1.476-1.333.92-3.053.945-4.646.004-.215-.432-.48-.715-.646-.378-.221-.541-.505-.24-.8.215-.208.585-.33.907-.383 1.663-.27 1.699-.279.966-1.308-.296-.416-.688-.794-.405-1.287.836-1.452 1.736-2.872 2.594-4.314.347-.583.407-1.17.285-1.872-.262-1.518.225-2.891 1.248-4.147.625-.768 1.031-1.69 1.533-2.546-.1-.083-.202-.167-.273-.268-.72-1.02-.752-1.659-.153-2.224.867-.82 1.67-1.74 2.678-2.379 1.707-1.083 2.778-2.46 3.277-4.319.209-.777.642-1.54 1.134-2.206 1.098-1.488 2.354-2.875 3.44-4.37.95-1.308 2.071-2.15 3.856-2.299 1.147-.097 1.816-.946 1.975-2.035.047-.322-.014-.657.007-.984.049-.707.401-1.354 1.1-1.548 3.51-.977 5.967-3.488 8.97-5.198.745-.426 1.351-1.073 2.114-1.463 2.047-1.045 3.84-2.396 5.473-3.91 1.828-1.692 4.162-2.472 6.459-3.32.367-.137.985.188 1.431.4.295.14.606.424.713.708 1.064 2.825 3.025 5.198 4.532 7.798.335.577.596 1.24 1.079 1.685 2.783 2.565 3.829 5.843 4.58 9.26.138.635.23 1.3.51 1.883.801 1.666 1.309 3.326 1.151 5.212-.092 1.103.347 2.27.69 3.37.419 1.341.28 2.619-.258 3.869-.724 1.681-1.4 3.393-2.299 4.995zm-69.767 27.92c-.493-.066-.958-.53-.875-1.015a9.368 9.368 0 0 1 .528-1.809c.158-.402.982-.355 1.271.083.26.395.44.836.591 1.131-.025.318-.03.476-.05.632-.093.657-.722 1.076-1.465.978zm-.757 22.525c-2.908-.793-5.383-2.17-7.097-4.55 3.113.191 5.413 1.786 7.45 3.826.083.083.08.313.019.43-.067.13-.282.319-.372.294zm-112.007-5.355c.278.117.347.363.254.65-.278-.102-.632-.163-.746-.35-.137-.224.174-.435.492-.3zm111.585-31.57c.635.431.569 1.062.526 1.673-.01.142-.176.405-.218.397-.26-.054-.657-.113-.727-.275-.187-.432-.255-.916-.318-1.384-.016-.112.15-.285.279-.358.12-.068.303-.04.458-.054zM529.548 237.16c.05.03.101.062.14.102.042.042-.01.165-.02.25l-.12-.352zm119.155-52.676c.002-.585-.112-1.217.122-1.704.346-.717 1.061-1.238 1.99-1.325.123-.012.366.135.382.234.146.846-.326 1.53-.836 2.14-.397.474-.998.678-1.658.655zm-101.218-23.73c-.023-.277.091-.416.362-.4-.012.099.015.247-.042.285-.09.06-.205.086-.32.115zm-.482.21c.1-.047.224-.05.348-.056-.065.333-.223.47-.484.384.043-.114.052-.287.136-.327zm-2.643 3.347c.117-.21.251-.41.377-.615.27.525-.185.683-.506.91.04-.1.077-.201.13-.295zm100.095 3.32c-1.121.192-2.183.542-3.187 1.044.064-.612.009-1.277.28-1.795 1.324-2.517 3.165-4.709 5.28-6.698.217-.204.634-.305.96-.308.322-.003.658.158.964.293.079.035.143.297.087.366-1.062 1.306-1.558 2.95-2.914 4.09-.934.787-1.306 1.869-1.47 3.009zm-.32 1.665c-.102-.077-.211-.27-.174-.357.169-.404.374-.794.572-1.188.496.203.714.583.696 1.083-.004.143-.103.308-.211.419-.253.26-.576.277-.883.043zm182.327 50.322c.376-.549.969-1.223.872-1.747-.307-1.66.748-2.809 1.44-4.1.392-.733 1.07-1.374 1.29-2.137.557-1.947 1.634-3.632 2.686-5.353.478-.781.335-1.555-.555-2.14-.231-.152-.451-.585-.386-.82.398-1.432.631-2.972 1.39-4.234 1.226-2.041 1.9-4.25 2.797-6.39.832-1.986 1.163-4.143 2.391-5.993.184-1.944 1.304-3.797.696-5.818-.41-1.366.003-2.647.61-3.827.762-1.479 1.715-2.875 2.63-4.282.724-1.117 1.526-2.134 1.81-3.508.294-1.426 1.43-2.732 1.584-4.148.206-1.902.928-3.43 2.179-4.868.303-.349.255-.947.421-1.415.118-.33.439-.363.774-.077.424.362.782.58 1.15-.065.993-1.742 1.909-3.532 3.041-5.194 1.215-1.782 3.112-3.182 3.405-5.459 1.63-1.334 2.18-3.364 3.615-4.83.47-.48.96-1.002 1.228-1.588.83-1.812 1.714-3.623 2.27-5.513.382-1.298 1.62-2.714.069-4.106-.29-.26-.07-.585.054-.921.456-1.241.894-2.496 1.192-3.775.199-.852.67-1.494 1.221-2.145.439-.517.049-1.393-.577-1.567-3.325-.92-6.686-.64-9.994-.064-1.112.193-2.297.768-2.842 2-.541 1.224-1.496 2.212-2.456 3.2-1.424 1.466-2.556 3.208-4.117 4.522-1.779 1.496-2.558 3.527-3.913 5.233a144.532 144.532 0 0 0-2.49 3.207c-3.952 5.271-7.791 10.604-11.046 16.291-1.491 2.607-3.129 5.182-5.046 7.528-1.532 1.878-2.732 3.798-3.405 6.056-.473 1.587-1.253 3.049-2.328 4.402-1.793 2.254-3.235 4.709-4.6 7.216-1.917 3.524-4.003 6.97-6.052 10.433-.24.407-.689.718-1.077 1.036-.658.009-.844-.124-.873-.244-.112-.463-.264-.944-.232-1.408.24-3.455.269-6.91.193-10.372-.03-1.323-.789-2.51-.498-3.886.27-1.282.24-2.616.381-3.924.087-.814.096-1.674.404-2.419.524-1.275.575-2.568.578-3.888.017-5.601.508-11.198.169-16.804-.08-1.31.063-2.637.186-3.95.324-3.508-.408-6.889-1.44-10.224-.398-1.292-1.178-2.483-2.473-3.113-1.465-.711-2.523-1.8-3.644-2.838-2.283-2.115-4.767-3.927-7.829-4.99-1.493-.518-3.015-1.017-4.41-1.72-1.738-.874-3.471-1.556-5.495-1.595-.659-.012-1.31-.458-1.96-.715-.688-.273-1.392-.257-2.077-.05-2.258.68-4.16 1.778-5.406 3.758-.621.986-1.478 1.844-2.21 2.772-1.36 1.726-2.677 3.47-3.893 5.296-3.268 4.913-6.04 10.07-8.981 15.146-1.177 2.028-2.454 4.017-3.46 6.117a734.923 734.923 0 0 0-4.443 9.505c-1.54 3.336-2.599 6.814-3.975 10.193-1.38 3.39-3.158 6.605-4.542 9.983-.103.25-.507.395-.771.589-.18-.444-.553-.912-.493-1.325.116-.802.512-1.566.728-2.36.348-1.275.803-2.552.911-3.85.079-.941-.44-1.91-.498-2.878-.093-1.53-.603-2.908-1.454-4.18-.94-1.406-1.724-2.855-2.227-4.456-.24-.764-.659-1.567-1.511-1.96-.866-.398-1.4-1.037-1.608-1.858-.62-2.46-2.032-4.538-3.51-6.602a166.633 166.633 0 0 1-3.427-5.01c-.589-.889-.878-1.8.107-2.671.69-.611.85-1.392.784-2.258-.228-2.96-1.517-5.295-4.21-7.046-4.366-2.838-8.997-5.263-13.571-7.773-1.356-.745-2.948-1.107-4.393-1.725-1.93-.826-3.83-1.72-5.731-2.605-1.947-.906-4.204-.632-6.172-1.415-.704-.28-1.302-.325-2.003-.023-.8.347-1.658.578-2.482.88-2.472.907-4.988 1.729-7.396 2.765-2.083.896-4.131 1.916-6.04 3.098-4.129 2.56-8.171 5.24-12.218 7.912-.86.567-1.507 1.424-2.389 1.95-3.306 1.978-6.133 4.458-8.876 7.037-1.487 1.398-3.157 2.629-3.875 4.63-.26.724-1.06 1.296-1.655 1.901-4.195 4.26-8.162 8.692-11.678 13.459-.902 1.221-1.774 2.47-2.532 3.77-.498.855-.778 1.82-1.118 2.747-.038.1.135.367.261.401a3.4 3.4 0 0 0 .99.106c.355-1.58 2.433-2.04 2.009-3.521l1.37-1.265c.394-.01.788-.02 1.182-.028.865-.21.87-.822.754-1.483-.077-.436-.44-.828.058-1.305.59-.566 1.046-1.25 1.576-1.873.232-.27.445-.164.702.205.345.5.744.969 1.126 1.447.138.667.162 1.3-.314 1.874-.997 1.197-1.573 2.56-1.714 4.058-.081.862-.444 1.548-1.062 2.178-.198.202-.328.6-.263.86.197.783.467 1.557.807 2.297.06.131.635.185.895.09 1.27-.465 1.373-1.891 2.314-2.574 1.577-1.144 2.63-2.603 3.604-4.175.887-1.43 2.01-2.64 3.733-3.355.929-.387 1.705-1.132 2.48-1.786 1.173-.988 2.23-2.101 3.443-3.04.793-.613 1.774-1.019 2.685-1.492.802 1.25.739 1.955-.13 2.435-1.469.811-2.444 1.845-2.567 3.472-.089 1.175-.58 2.22-1.244 3.203-1.037 1.538-1.926 3.117-2.086 4.984-.059.678-.562 1.218-1.23 1.5-2.008.849-2.63 2.525-3.048 4.318-.06.26.05.669.25.835.177.145.477.163.759.199-.124.571-.129 1.225-.469 1.644-.97 1.195-1.134 2.558-1.282 3.948-.04.375-.057.753-.077 1.129.353-.255.734-.492.98-.816.596-.788.903-1.863 1.668-2.415.946-.683 2.108-1.13 3-1.933.446.256.519.414.556.565.038.157.074.347.014.487-1.295 3.045-2.492 6.133-4.376 8.926-.44.653-.993 1.226-1.863 1.379-.878 5.507-.912 5.606-3.209 9.122-.428.655-1.121.665-1.856.51-.548-.115-1.019-.01-1.13.6-.49 2.641-.39 5.246.541 7.808.34.936.612 1.894.884 2.849.135.473.4 1.018.263 1.435-.524 1.602.098 3.303-.561 4.871-.402.956-.4 1.893-.172 2.898.33 1.448.513 2.925.741 4.392.134.86-.014 1.61-.917 2.114-.27.151-.56.47-.6.744-.168 1.128-.252 2.268-.345 3.404a.74.74 0 0 0 .146.47c.372.49.236.924-.274 1.149-.243.106-.763.004-.962-.183-2.596-2.451-5.439-4.728-6.795-8.085-.115-.284-.406-.564-.694-.718-.248-.131-.613-.118-.917-.089-.106.011-.272.27-.26.404.114 1.301.01 2.682.46 3.88.578 1.545 1.228 3.014 1.342 4.69.13 1.905 1.77 3.175 2.683 4.756.068.118-.082.33-.05.483.518 2.522 2.433 4.001 4.763 4.895 2.28.873 4.548 1.86 7.043 2.206 1.222.17 2.327.655 3.458 1.164 1.385.623 2.997.813 4.511 1.19 1.805-.543 3.48.355 5.233.409.515.016 1.062.237 1.536.134 1.416-.307 2.826-.143 4.242-.144 1.715-.004 3.594.412 4.733-1.395.093-.147.674-.096 1.004-.031 1.185.23 1.525-.501 1.843-1.306.18-.457.413-.442.785-.142.38.307.835.585 1.309.728.547.167 1.174-.395 1.448-1.167.432-1.226.46-1.32 1.513-1.04.962.257 1.733.108 2.469-.44.68-.507 1.283-1.126 2.325-.9.156.035.582-.366.618-.601.177-1.163.742-1.784 2.1-1.604 1.866.245 3.087-.398 3.5-2.2.06-.257.429-.569.718-.643 1.014-.262 1.822-1.014 2.977-.955 1.355.069 1.844-1.342 3.034-1.673.31-.087.441-.836.583-1.3.133-.435.424-.655.775-.37 1.058.856 2.182.38 2.846-.219 1.14-1.026 2.264-2.064 3.485-3.013.654-.508.169-1.89 1.132-1.872.926.017 1.69-.087 2.515-.414 1.679-.665 3.086-1.543 3.825-3.193.18-.4.708-.935 1.087-.942 1.562-.03 1.977-.921 2.312-2.09.114-.4.685-.71 1.093-1.007.833-.605 1.77-1.101 2.526-1.776.74-.659 1.088-1.657 2.324-1.874.382-.066.74-.691.934-1.127.266-.596.392-1.252.532-1.891.218-.992.578-1.81 1.633-2.379.71-.384 1.12-1.214 1.772-1.73.657-.519 1.087-1.324 2.032-1.5.637.113.824.28.824.406-.003.638.04 1.297-.116 1.91-1.295 5.109-3.09 10.108-3.902 15.323-.932 1.878-.712 3.87-.626 5.838.021.473.162 1.018.455 1.389.948 1.194 1.941 2.46 3.46 2.997 1.64.578 3.29 1.283 5.127 1.198.7-.032 1.498.113 2.078-.151 1.315-.6 2.759-.58 4.104-.973.732-.215 1.194-.666 1.424-1.328.216-.619.352-1.268.639-1.855.118-.244.531-.483.825-.5.298-.018.628.22.917.386.141.081.252.241.321.388.14.3.292.606.35.923.154.83.316 1.739 1.418 1.78.759.027 1.084-.717 1.398-1.292a5.8 5.8 0 0 0 .39-.917c.301-.889.93-1.213 1.94-1.327 1.743-.198 3.093.544 4.488 1.266.61.316 1.465.052 1.732-.523 1.335-2.872 2.66-5.77 3.343-8.83.903-4.042 2.592-7.845 3.788-11.794.527-1.738 1.23-3.428 1.79-5.158.913-2.829 1.512-5.752 3.183-8.34.448-.695.68-1.522.929-2.31 1.107-3.494 2.922-6.71 4.522-10.01.29-.595.707-1.138 1.071-1.701.22-.338.558-.502.874-.317.267.157.625.47.614.7-.131 2.81.67 5.554.657 8.354-.02 3.646.738 7.225 1.594 10.738 1.33 5.457 3.212 10.759 6.135 15.727 1.394 2.37 3.096 4.391 5.296 6.102 1.54 1.198 3.276 1.923 5.303 2.05 2.296.144 4.586.37 6.883.48.692.035 1.43-.109 2.087-.33.463-.156.99-.506 1.194-.9.457-.883.643-1.887 1.117-2.759.2-.368.822-.6 1.304-.747.23-.07.71.127.845.333.145.22.118.642-.017.89-.143.26-.515.408-.766.626-.441.384-.437.87.047 1.191.258.171.636.188.964.268.313-.34.6-.711.974-.978.22-.158.764-.248.908-.12 1.238 1.091 1.14-.153 1.636-.663.659-.678 1.911-.56 2.584-1.421.27-.346.884-.589 1.371-.64 3.341-.36 2.315-1.616 3.953-3.28.475-.48 1.134-.72 1.742-1.013.887-.43 1.645-1.008 2.318-1.675 1.35-1.335 2.368-3.027 3.441-4.595z"/>
</svg>
