<?xml version="1.0" encoding="UTF-8"?>
<svg width="1046px" height="147px" viewBox="0 0 1046 147" version="1.1" xmlns="http://www.w3.org/2000/svg" xmlns:xlink="http://www.w3.org/1999/xlink">
    <!-- Generator: Sketch 48.2 (47327) - http://www.bohemiancoding.com/sketch -->
    <title>Hackathon 4block</title>
    <desc>Created with Sketch.</desc>
    <defs></defs>
    <g id="Hackaton-landing" stroke="none" stroke-width="1" fill="none" fill-rule="evenodd" transform="translate(-197.000000, -223.000000)">
        <path d="M236.574219,368.339844 C236.509114,368.795575 236.297528,369.186196 235.939453,369.511719 C235.581378,369.837241 235.14193,370 234.621094,370 L225.734375,370 C224.49739,370 223.878906,369.381517 223.878906,368.144531 L223.878906,322.34375 L209.914062,322.34375 L209.914062,368.144531 C209.914062,368.665367 209.718752,369.104816 209.328125,369.462891 C208.937498,369.820965 208.481773,370 207.960938,370 L199.074219,370 C197.837233,370 197.21875,369.381517 197.21875,368.144531 L197.21875,225.566406 C197.21875,224.329421 197.837233,223.710938 199.074219,223.710938 L207.960938,223.710938 C208.481773,223.710938 208.937498,223.889972 209.328125,224.248047 C209.718752,224.606122 209.914062,225.04557 209.914062,225.566406 L209.914062,309.648438 L223.878906,309.648438 L223.878906,225.566406 C223.878906,224.329421 224.49739,223.710938 225.734375,223.710938 L234.621094,223.710938 C235.792975,223.710938 236.44401,224.264317 236.574219,225.371094 L236.574219,368.339844 Z M285.433594,223.710938 C288.167982,223.710938 290.723295,224.231766 293.099609,225.273438 C295.475923,226.315109 297.559236,227.714835 299.349609,229.472656 C301.139983,231.230478 302.555984,233.31379 303.597656,235.722656 C304.639328,238.131522 305.160156,240.703111 305.160156,243.4375 L305.160156,368.242188 C305.029947,369.414068 304.378912,370 303.207031,370 L294.320312,370 C293.799477,370 293.360028,369.804689 293.001953,369.414062 C292.643878,369.023436 292.464844,368.567711 292.464844,368.046875 L292.464844,322.441406 L278.5,322.441406 L278.5,368.046875 C278.5,368.567711 278.304689,369.023436 277.914062,369.414062 C277.523436,369.804689 277.067711,370 276.546875,370 L267.660156,370 C267.13932,370 266.699872,369.804689 266.341797,369.414062 C265.983722,369.023436 265.804688,368.567711 265.804688,368.046875 L265.804688,243.4375 C265.804688,240.703111 266.325516,238.131522 267.367188,235.722656 C268.408859,233.31379 269.808585,231.230478 271.566406,229.472656 C273.324228,227.714835 275.391264,226.315109 277.767578,225.273438 C280.143892,224.231766 282.699205,223.710938 285.433594,223.710938 Z M292.464844,243.4375 C292.464844,241.484365 291.781257,239.824226 290.414062,238.457031 C289.046868,237.089837 287.386729,236.40625 285.433594,236.40625 C283.545563,236.40625 281.917976,237.089837 280.550781,238.457031 C279.183587,239.824226 278.5,241.484365 278.5,243.4375 L278.5,309.746094 L292.464844,309.746094 L292.464844,243.4375 Z M362.417969,243.632812 C362.417969,241.744782 361.734382,240.117194 360.367188,238.75 C358.999993,237.382806 357.372405,236.699219 355.484375,236.699219 C353.53124,236.699219 351.871101,237.382806 350.503906,238.75 C349.136712,240.117194 348.453125,241.744782 348.453125,243.632812 L348.453125,350.175781 C348.453125,352.128916 349.136712,353.789056 350.503906,355.15625 C351.871101,356.523444 353.53124,357.207031 355.484375,357.207031 C357.372405,357.207031 358.999993,356.523444 360.367188,355.15625 C361.734382,353.789056 362.417969,352.128916 362.417969,350.175781 L362.417969,328.789062 C362.417969,327.552077 363.036452,326.933594 364.273438,326.933594 L373.160156,326.933594 C373.680992,326.933594 374.120441,327.096353 374.478516,327.421875 C374.83659,327.747397 375.048177,328.138019 375.113281,328.59375 L375.113281,350.175781 C375.113281,352.91017 374.592453,355.465483 373.550781,357.841797 C372.509109,360.218111 371.093108,362.301423 369.302734,364.091797 C367.512361,365.88217 365.429048,367.298172 363.052734,368.339844 C360.67642,369.381516 358.153659,369.902344 355.484375,369.902344 C352.749986,369.902344 350.178397,369.381516 347.769531,368.339844 C345.360665,367.298172 343.277353,365.88217 341.519531,364.091797 C339.76171,362.301423 338.361984,360.218111 337.320312,357.841797 C336.278641,355.465483 335.757812,352.91017 335.757812,350.175781 L335.757812,243.632812 C335.757812,240.898424 336.278641,238.343111 337.320312,235.966797 C338.361984,233.590483 339.76171,231.50717 341.519531,229.716797 C343.277353,227.926423 345.360665,226.510422 347.769531,225.46875 C350.178397,224.427078 352.749986,223.90625 355.484375,223.90625 C358.153659,223.90625 360.67642,224.427078 363.052734,225.46875 C365.429048,226.510422 367.512361,227.926423 369.302734,229.716797 C371.093108,231.50717 372.509109,233.590483 373.550781,235.966797 C374.592453,238.343111 375.113281,240.898424 375.113281,243.632812 L375.113281,257.207031 C375.048177,257.662763 374.83659,258.053384 374.478516,258.378906 C374.120441,258.704429 373.680992,258.867188 373.160156,258.867188 L364.273438,258.867188 C363.036452,258.867188 362.417969,258.248704 362.417969,257.011719 L362.417969,243.632812 Z M445.164062,266.679688 C445.164062,269.218763 444.692062,271.611317 443.748047,273.857422 C442.804032,276.103527 441.550789,278.10546 439.988281,279.863281 C441.550789,281.555998 442.804032,283.525379 443.748047,285.771484 C444.692062,288.017589 445.164062,290.410144 445.164062,292.949219 L445.164062,368.242188 C445.033854,369.414068 444.41537,370 443.308594,370 L434.421875,370 C433.18489,370 432.533854,369.381517 432.46875,368.144531 L432.46875,292.949219 C432.403646,291.061188 431.703783,289.466152 430.369141,288.164062 C429.034499,286.861973 427.423187,286.210938 425.535156,286.210938 L418.503906,286.210938 L418.503906,368.046875 C418.503906,368.567711 418.324872,369.023436 417.966797,369.414062 C417.608722,369.804689 417.169273,370 416.648438,370 L407.761719,370 C407.240883,370 406.785158,369.804689 406.394531,369.414062 C406.003904,369.023436 405.808594,368.567711 405.808594,368.046875 L405.808594,225.46875 C405.808594,224.947914 406.003904,224.508465 406.394531,224.150391 C406.785158,223.792316 407.240883,223.613281 407.761719,223.613281 L416.648438,223.613281 C417.885423,223.613281 418.503906,224.231765 418.503906,225.46875 L418.503906,273.515625 L425.535156,273.515625 C427.423187,273.515625 429.034499,272.848314 430.369141,271.513672 C431.703783,270.17903 432.403646,268.567718 432.46875,266.679688 L432.46875,225.371094 C432.598959,224.199213 433.249994,223.613281 434.421875,223.613281 L443.308594,223.613281 C443.82943,223.613281 444.252603,223.77604 444.578125,224.101562 C444.903647,224.427085 445.098958,224.817706 445.164062,225.273438 L445.164062,266.679688 Z M494.121094,223.710938 C496.855482,223.710938 499.410795,224.231766 501.787109,225.273438 C504.163423,226.315109 506.246736,227.714835 508.037109,229.472656 C509.827483,231.230478 511.243484,233.31379 512.285156,235.722656 C513.326828,238.131522 513.847656,240.703111 513.847656,243.4375 L513.847656,368.242188 C513.717447,369.414068 513.066412,370 511.894531,370 L503.007812,370 C502.486977,370 502.047528,369.804689 501.689453,369.414062 C501.331378,369.023436 501.152344,368.567711 501.152344,368.046875 L501.152344,322.441406 L487.1875,322.441406 L487.1875,368.046875 C487.1875,368.567711 486.992189,369.023436 486.601562,369.414062 C486.210936,369.804689 485.755211,370 485.234375,370 L476.347656,370 C475.82682,370 475.387372,369.804689 475.029297,369.414062 C474.671222,369.023436 474.492188,368.567711 474.492188,368.046875 L474.492188,243.4375 C474.492188,240.703111 475.013016,238.131522 476.054688,235.722656 C477.096359,233.31379 478.496085,231.230478 480.253906,229.472656 C482.011728,227.714835 484.078764,226.315109 486.455078,225.273438 C488.831392,224.231766 491.386705,223.710938 494.121094,223.710938 Z M501.152344,243.4375 C501.152344,241.484365 500.468757,239.824226 499.101562,238.457031 C497.734368,237.089837 496.074229,236.40625 494.121094,236.40625 C492.233063,236.40625 490.605476,237.089837 489.238281,238.457031 C487.871087,239.824226 487.1875,241.484365 487.1875,243.4375 L487.1875,309.746094 L501.152344,309.746094 L501.152344,243.4375 Z M564.855469,234.355469 C564.855469,234.876305 564.660158,235.332029 564.269531,235.722656 C563.878904,236.113283 563.42318,236.308594 562.902344,236.308594 L551.476562,236.308594 L551.476562,368.144531 C551.476562,369.381517 550.858079,370 549.621094,370 L540.734375,370 C539.49739,370 538.878906,369.381517 538.878906,368.144531 L538.878906,236.308594 L527.453125,236.308594 C526.932289,236.308594 526.476564,236.113283 526.085938,235.722656 C525.695311,235.332029 525.5,234.876305 525.5,234.355469 L525.5,225.46875 C525.5,224.947914 525.695311,224.508465 526.085938,224.150391 C526.476564,223.792316 526.932289,223.613281 527.453125,223.613281 L562.902344,223.613281 C563.42318,223.613281 563.878904,223.792316 564.269531,224.150391 C564.660158,224.508465 564.855469,224.947914 564.855469,225.46875 L564.855469,234.355469 Z M630.511719,368.339844 C630.446614,368.795575 630.235028,369.186196 629.876953,369.511719 C629.518878,369.837241 629.07943,370 628.558594,370 L619.671875,370 C618.43489,370 617.816406,369.381517 617.816406,368.144531 L617.816406,322.34375 L603.851562,322.34375 L603.851562,368.144531 C603.851562,368.665367 603.656252,369.104816 603.265625,369.462891 C602.874998,369.820965 602.419273,370 601.898438,370 L593.011719,370 C591.774733,370 591.15625,369.381517 591.15625,368.144531 L591.15625,225.566406 C591.15625,224.329421 591.774733,223.710938 593.011719,223.710938 L601.898438,223.710938 C602.419273,223.710938 602.874998,223.889972 603.265625,224.248047 C603.656252,224.606122 603.851562,225.04557 603.851562,225.566406 L603.851562,309.648438 L617.816406,309.648438 L617.816406,225.566406 C617.816406,224.329421 618.43489,223.710938 619.671875,223.710938 L628.558594,223.710938 C629.730475,223.710938 630.38151,224.264317 630.511719,225.371094 L630.511719,368.339844 Z M694.605469,231.035156 C695.907559,232.727873 696.949215,234.632151 697.730469,236.748047 C698.511723,238.863943 698.902344,241.061187 698.902344,243.339844 L698.902344,350.371094 C698.902344,352.649751 698.511723,354.830719 697.730469,356.914062 C696.949215,358.997406 695.907559,360.885408 694.605469,362.578125 C692.782543,364.856782 690.552748,366.663405 687.916016,367.998047 C685.279284,369.332689 682.398453,370 679.273438,370 C676.148422,370 673.251315,369.332689 670.582031,367.998047 C667.912747,366.663405 665.666676,364.856782 663.84375,362.578125 C662.54166,360.885408 661.500004,358.997406 660.71875,356.914062 C659.937496,354.830719 659.546875,352.649751 659.546875,350.371094 L659.546875,243.339844 C659.546875,241.061187 659.937496,238.863943 660.71875,236.748047 C661.500004,234.632151 662.54166,232.727873 663.84375,231.035156 C665.666676,228.756499 667.912747,226.966152 670.582031,225.664062 C673.251315,224.361973 676.148422,223.710938 679.273438,223.710938 C682.398453,223.710938 685.279284,224.361973 687.916016,225.664062 C690.552748,226.966152 692.782543,228.756499 694.605469,231.035156 Z M686.207031,243.339844 C686.207031,241.451813 685.523444,239.824226 684.15625,238.457031 C682.789056,237.089837 681.161468,236.40625 679.273438,236.40625 C677.320303,236.40625 675.660163,237.089837 674.292969,238.457031 C672.925774,239.824226 672.242188,241.451813 672.242188,243.339844 L672.242188,350.371094 C672.242188,352.259124 672.925774,353.886712 674.292969,355.253906 C675.660163,356.621101 677.320303,357.304688 679.273438,357.304688 C681.161468,357.304688 682.789056,356.621101 684.15625,355.253906 C685.523444,353.886712 686.207031,352.259124 686.207031,350.371094 L686.207031,243.339844 Z M767.390625,368.144531 C767.390625,368.665367 767.227866,369.08854 766.902344,369.414062 C766.576821,369.739585 766.1862,369.934896 765.730469,370 L756.648438,370 C756.127602,370 755.671877,369.820965 755.28125,369.462891 C754.890623,369.104816 754.695312,368.665367 754.695312,368.144531 L754.695312,243.339844 C754.695312,241.451813 754.011726,239.80795 752.644531,238.408203 C751.277337,237.008457 749.649749,236.308594 747.761719,236.308594 C745.808584,236.308594 744.148444,237.008457 742.78125,238.408203 C741.414056,239.80795 740.730469,241.451813 740.730469,243.339844 L740.730469,368.046875 C740.730469,368.567711 740.551434,369.023436 740.193359,369.414062 C739.835285,369.804689 739.395836,370 738.875,370 L729.988281,370 C729.467445,370 729.011721,369.804689 728.621094,369.414062 C728.230467,369.023436 728.035156,368.567711 728.035156,368.046875 L728.035156,225.664062 C728.035156,225.143227 728.230467,224.703778 728.621094,224.345703 C729.011721,223.987628 729.467445,223.808594 729.988281,223.808594 L738.875,223.808594 C739.721358,223.808594 740.30729,224.199215 740.632812,224.980469 C742.585947,224.13411 744.962226,223.710938 747.761719,223.710938 C750.300794,223.710938 752.709624,224.166662 754.988281,225.078125 C757.266938,225.989588 759.285147,227.259106 761.042969,228.886719 C762.996104,230.709645 764.542312,232.841785 765.681641,235.283203 C766.820969,237.724622 767.390625,240.410142 767.390625,243.339844 L767.390625,368.144531 Z M897.921875,368.242188 C897.921875,369.414068 897.303392,370 896.066406,370 L887.667969,370 C886.756506,370 886.170574,369.609379 885.910156,368.828125 L885.910156,317.558594 L862.570312,317.558594 C861.333327,317.558594 860.714844,316.94011 860.714844,315.703125 L860.714844,307.402344 L860.8125,306.71875 L871.359375,225.46875 C871.359375,224.296869 871.945307,223.710938 873.117188,223.710938 L881.613281,223.710938 C882.524744,223.710938 883.078124,224.101559 883.273438,224.882812 C883.338542,224.947917 883.371094,225.143228 883.371094,225.46875 L873.117188,305.449219 L885.910156,305.449219 L885.910156,292.949219 C885.910156,291.712233 886.496088,291.09375 887.667969,291.09375 L896.066406,291.09375 C896.977869,291.09375 897.563801,291.516923 897.824219,292.363281 C897.889323,292.428386 897.921875,292.623696 897.921875,292.949219 L897.921875,368.242188 Z M968.070312,267.949219 C968.070312,273.222683 966.312518,277.682273 962.796875,281.328125 C966.312518,284.973977 968.070312,289.401016 968.070312,294.609375 L968.070312,350.371094 C968.070312,354.66799 966.882173,358.443994 964.505859,361.699219 C962.129545,364.954443 959.085956,367.29817 955.375,368.730469 C953.747388,369.381514 951.794282,369.804687 949.515625,370 L930.472656,370 C929.300775,369.869791 928.714844,369.218756 928.714844,368.046875 L928.714844,225.664062 C928.714844,224.492182 929.300775,223.841146 930.472656,223.710938 L949.515625,223.710938 C950.557297,223.776042 951.566401,223.922525 952.542969,224.150391 C953.519536,224.378256 954.463537,224.654946 955.375,224.980469 C959.085956,226.412768 962.129545,228.756494 964.505859,232.011719 C966.882173,235.266943 968.070312,239.042947 968.070312,243.339844 L968.070312,267.949219 Z M941.410156,274.980469 L948.34375,274.980469 C950.296885,274.980469 951.957024,274.296882 953.324219,272.929688 C954.691413,271.562493 955.375,269.902354 955.375,267.949219 L955.375,243.339844 C955.375,241.451813 954.691413,239.824226 953.324219,238.457031 C951.957024,237.089837 950.296885,236.40625 948.34375,236.40625 L941.410156,236.40625 L941.410156,274.980469 Z M955.375,294.609375 C955.375,292.721345 954.691413,291.093757 953.324219,289.726562 C951.957024,288.359368 950.296885,287.675781 948.34375,287.675781 L941.410156,287.675781 L941.410156,357.304688 L948.34375,357.304688 C950.296885,357.304688 951.957024,356.621101 953.324219,355.253906 C954.691413,353.886712 955.375,352.259124 955.375,350.371094 L955.375,294.609375 Z M1039.68359,368.046875 C1039.68359,368.567711 1039.48828,369.023436 1039.09766,369.414062 C1038.70703,369.804689 1038.2513,370 1037.73047,370 L1002.47656,370 C1001.95573,370 1001.5,369.804689 1001.10938,369.414062 C1000.71875,369.023436 1000.52344,368.567711 1000.52344,368.046875 L1000.52344,225.566406 C1000.52344,225.04557 1000.71875,224.606122 1001.10938,224.248047 C1001.5,223.889972 1001.95573,223.710938 1002.47656,223.710938 L1011.36328,223.710938 C1012.60027,223.710938 1013.21875,224.329421 1013.21875,225.566406 L1013.21875,357.304688 L1037.73047,357.304688 C1038.2513,357.304688 1038.70703,357.499998 1039.09766,357.890625 C1039.48828,358.281252 1039.68359,358.736977 1039.68359,359.257812 L1039.68359,368.046875 Z M1099.87109,231.035156 C1101.17318,232.727873 1102.21484,234.632151 1102.99609,236.748047 C1103.77735,238.863943 1104.16797,241.061187 1104.16797,243.339844 L1104.16797,350.371094 C1104.16797,352.649751 1103.77735,354.830719 1102.99609,356.914062 C1102.21484,358.997406 1101.17318,360.885408 1099.87109,362.578125 C1098.04817,364.856782 1095.81837,366.663405 1093.18164,367.998047 C1090.54491,369.332689 1087.66408,370 1084.53906,370 C1081.41405,370 1078.51694,369.332689 1075.84766,367.998047 C1073.17837,366.663405 1070.9323,364.856782 1069.10938,362.578125 C1067.80729,360.885408 1066.76563,358.997406 1065.98438,356.914062 C1065.20312,354.830719 1064.8125,352.649751 1064.8125,350.371094 L1064.8125,243.339844 C1064.8125,241.061187 1065.20312,238.863943 1065.98438,236.748047 C1066.76563,234.632151 1067.80729,232.727873 1069.10938,231.035156 C1070.9323,228.756499 1073.17837,226.966152 1075.84766,225.664062 C1078.51694,224.361973 1081.41405,223.710938 1084.53906,223.710938 C1087.66408,223.710938 1090.54491,224.361973 1093.18164,225.664062 C1095.81837,226.966152 1098.04817,228.756499 1099.87109,231.035156 Z M1091.47266,243.339844 C1091.47266,241.451813 1090.78907,239.824226 1089.42188,238.457031 C1088.05468,237.089837 1086.42709,236.40625 1084.53906,236.40625 C1082.58593,236.40625 1080.92579,237.089837 1079.55859,238.457031 C1078.1914,239.824226 1077.50781,241.451813 1077.50781,243.339844 L1077.50781,350.371094 C1077.50781,352.259124 1078.1914,353.886712 1079.55859,355.253906 C1080.92579,356.621101 1082.58593,357.304688 1084.53906,357.304688 C1086.42709,357.304688 1088.05468,356.621101 1089.42188,355.253906 C1090.78907,353.886712 1091.47266,352.259124 1091.47266,350.371094 L1091.47266,243.339844 Z M1160.25391,243.632812 C1160.25391,241.744782 1159.57032,240.117194 1158.20312,238.75 C1156.83593,237.382806 1155.20834,236.699219 1153.32031,236.699219 C1151.36718,236.699219 1149.70704,237.382806 1148.33984,238.75 C1146.97265,240.117194 1146.28906,241.744782 1146.28906,243.632812 L1146.28906,350.175781 C1146.28906,352.128916 1146.97265,353.789056 1148.33984,355.15625 C1149.70704,356.523444 1151.36718,357.207031 1153.32031,357.207031 C1155.20834,357.207031 1156.83593,356.523444 1158.20312,355.15625 C1159.57032,353.789056 1160.25391,352.128916 1160.25391,350.175781 L1160.25391,328.789062 C1160.25391,327.552077 1160.87239,326.933594 1162.10938,326.933594 L1170.99609,326.933594 C1171.51693,326.933594 1171.95638,327.096353 1172.31445,327.421875 C1172.67253,327.747397 1172.88411,328.138019 1172.94922,328.59375 L1172.94922,350.175781 C1172.94922,352.91017 1172.42839,355.465483 1171.38672,357.841797 C1170.34505,360.218111 1168.92905,362.301423 1167.13867,364.091797 C1165.3483,365.88217 1163.26499,367.298172 1160.88867,368.339844 C1158.51236,369.381516 1155.9896,369.902344 1153.32031,369.902344 C1150.58592,369.902344 1148.01433,369.381516 1145.60547,368.339844 C1143.1966,367.298172 1141.11329,365.88217 1139.35547,364.091797 C1137.59765,362.301423 1136.19792,360.218111 1135.15625,357.841797 C1134.11458,355.465483 1133.59375,352.91017 1133.59375,350.175781 L1133.59375,243.632812 C1133.59375,240.898424 1134.11458,238.343111 1135.15625,235.966797 C1136.19792,233.590483 1137.59765,231.50717 1139.35547,229.716797 C1141.11329,227.926423 1143.1966,226.510422 1145.60547,225.46875 C1148.01433,224.427078 1150.58592,223.90625 1153.32031,223.90625 C1155.9896,223.90625 1158.51236,224.427078 1160.88867,225.46875 C1163.26499,226.510422 1165.3483,227.926423 1167.13867,229.716797 C1168.92905,231.50717 1170.34505,233.590483 1171.38672,235.966797 C1172.42839,238.343111 1172.94922,240.898424 1172.94922,243.632812 L1172.94922,257.207031 C1172.88411,257.662763 1172.67253,258.053384 1172.31445,258.378906 C1171.95638,258.704429 1171.51693,258.867188 1170.99609,258.867188 L1162.10938,258.867188 C1160.87239,258.867188 1160.25391,258.248704 1160.25391,257.011719 L1160.25391,243.632812 Z M1243,266.679688 C1243,269.218763 1242.528,271.611317 1241.58398,273.857422 C1240.63997,276.103527 1239.38673,278.10546 1237.82422,279.863281 C1239.38673,281.555998 1240.63997,283.525379 1241.58398,285.771484 C1242.528,288.017589 1243,290.410144 1243,292.949219 L1243,368.242188 C1242.86979,369.414068 1242.25131,370 1241.14453,370 L1232.25781,370 C1231.02083,370 1230.36979,369.381517 1230.30469,368.144531 L1230.30469,292.949219 C1230.23958,291.061188 1229.53972,289.466152 1228.20508,288.164062 C1226.87044,286.861973 1225.25912,286.210938 1223.37109,286.210938 L1216.33984,286.210938 L1216.33984,368.046875 C1216.33984,368.567711 1216.16081,369.023436 1215.80273,369.414062 C1215.44466,369.804689 1215.00521,370 1214.48438,370 L1205.59766,370 C1205.07682,370 1204.6211,369.804689 1204.23047,369.414062 C1203.83984,369.023436 1203.64453,368.567711 1203.64453,368.046875 L1203.64453,225.46875 C1203.64453,224.947914 1203.83984,224.508465 1204.23047,224.150391 C1204.6211,223.792316 1205.07682,223.613281 1205.59766,223.613281 L1214.48438,223.613281 C1215.72136,223.613281 1216.33984,224.231765 1216.33984,225.46875 L1216.33984,273.515625 L1223.37109,273.515625 C1225.25912,273.515625 1226.87044,272.848314 1228.20508,271.513672 C1229.53972,270.17903 1230.23958,268.567718 1230.30469,266.679688 L1230.30469,225.371094 C1230.4349,224.199213 1231.08593,223.613281 1232.25781,223.613281 L1241.14453,223.613281 C1241.66537,223.613281 1242.08854,223.77604 1242.41406,224.101562 C1242.73958,224.427085 1242.9349,224.817706 1243,225.273438 L1243,266.679688 Z" id="Hackathon-4block" fill="#0C0C0C"></path>
    </g>
</svg>